<?xml version="1.0" encoding="UTF-8" standalone="no"?>
<!DOCTYPE svg PUBLIC "-//W3C//DTD SVG 1.1//EN"
 "http://www.w3.org/Graphics/SVG/1.1/DTD/svg11.dtd">
<!-- Generated by graphviz version 10.0.1 (20240210.2158)
 -->
<!-- Pages: 1 -->
<svg width="316pt" height="120pt"
 viewBox="0.00 0.00 315.76 120.00" xmlns="http://www.w3.org/2000/svg" xmlns:xlink="http://www.w3.org/1999/xlink">
<g id="graph0" class="graph" transform="scale(1 1) rotate(0) translate(4 116)">
<polygon fill="white" stroke="none" points="-4,4 -4,-116 311.76,-116 311.76,4 -4,4"/>
<!-- q0 -->
<g id="node1" class="node">
<title>q0</title>
<ellipse fill="none" stroke="black" cx="113.63" cy="-20.13" rx="20.13" ry="20.13"/>
<text text-anchor="middle" x="113.63" y="-14.7" font-family="Times New Roman,serif" font-size="14.00">q0</text>
</g>
<!-- q0&#45;&gt;q0 -->
<g id="edge3" class="edge">
<title>q0&#45;&gt;q0</title>
<path fill="none" stroke="black" d="M106.64,-39.35C105.56,-49.29 107.89,-58.25 113.63,-58.25 116.94,-58.25 119.12,-55.26 120.16,-50.81"/>
<polygon fill="black" stroke="black" points="123.65,-50.99 120.55,-40.86 116.66,-50.72 123.65,-50.99"/>
<text text-anchor="middle" x="113.63" y="-60.7" font-family="Times New Roman,serif" font-size="14.00">1</text>
</g>
<!-- q1 -->
<g id="node3" class="node">
<title>q1</title>
<ellipse fill="none" stroke="black" cx="196.63" cy="-58.13" rx="20.13" ry="20.13"/>
<text text-anchor="middle" x="196.63" y="-52.7" font-family="Times New Roman,serif" font-size="14.00">q1</text>
</g>
<!-- q0&#45;&gt;q1 -->
<g id="edge2" class="edge">
<title>q0&#45;&gt;q1</title>
<path fill="none" stroke="black" d="M132.2,-28.37C142.53,-33.22 155.83,-39.46 167.58,-44.97"/>
<polygon fill="black" stroke="black" points="165.9,-48.04 176.44,-49.12 168.87,-41.71 165.9,-48.04"/>
<text text-anchor="middle" x="155.13" y="-43.58" font-family="Times New Roman,serif" font-size="14.00">0</text>
</g>
<!-- q2 -->
<g id="node2" class="node">
<title>q2</title>
<ellipse fill="none" stroke="black" cx="283.63" cy="-37.13" rx="20.13" ry="20.13"/>
<ellipse fill="none" stroke="black" cx="283.63" cy="-37.13" rx="24.13" ry="24.13"/>
<text text-anchor="middle" x="283.63" y="-31.7" font-family="Times New Roman,serif" font-size="14.00">q2</text>
</g>
<!-- q2&#45;&gt;q0 -->
<g id="edge6" class="edge">
<title>q2&#45;&gt;q0</title>
<path fill="none" stroke="black" d="M261.19,-27.26C248.55,-21.99 232.08,-16.06 216.75,-13.38 192.76,-9.18 165.17,-11.42 144.73,-14.4"/>
<polygon fill="black" stroke="black" points="144.4,-10.9 135.09,-15.95 145.52,-17.81 144.4,-10.9"/>
<text text-anchor="middle" x="196.63" y="-16.58" font-family="Times New Roman,serif" font-size="14.00">0</text>
</g>
<!-- q2&#45;&gt;q1 -->
<g id="edge7" class="edge">
<title>q2&#45;&gt;q1</title>
<path fill="none" stroke="black" d="M259.87,-32.7C251.8,-31.95 242.75,-32.04 234.75,-34.38 230.62,-35.59 226.51,-37.41 222.61,-39.53"/>
<polygon fill="black" stroke="black" points="220.83,-36.51 214.2,-44.76 224.54,-42.45 220.83,-36.51"/>
<text text-anchor="middle" x="238.13" y="-37.58" font-family="Times New Roman,serif" font-size="14.00">1</text>
</g>
<!-- q1&#45;&gt;q2 -->
<g id="edge5" class="edge">
<title>q1&#45;&gt;q2</title>
<path fill="none" stroke="black" d="M217.06,-57.61C224.76,-57.08 233.63,-56.06 241.5,-54.13 244.5,-53.39 247.55,-52.47 250.58,-51.44"/>
<polygon fill="black" stroke="black" points="251.75,-54.74 259.86,-47.92 249.27,-48.2 251.75,-54.74"/>
<text text-anchor="middle" x="238.13" y="-57.58" font-family="Times New Roman,serif" font-size="14.00">1</text>
</g>
<!-- q1&#45;&gt;q1 -->
<g id="edge4" class="edge">
<title>q1&#45;&gt;q1</title>
<path fill="none" stroke="black" d="M189.17,-76.96C187.9,-87.05 190.39,-96.25 196.63,-96.25 200.33,-96.25 202.72,-93.01 203.78,-88.26"/>
<polygon fill="black" stroke="black" points="207.27,-88.56 204.05,-78.47 200.27,-88.37 207.27,-88.56"/>
<text text-anchor="middle" x="196.63" y="-98.7" font-family="Times New Roman,serif" font-size="14.00">0</text>
</g>
<!-- start -->
<g id="node4" class="node">
<title>start</title>
<text text-anchor="middle" x="28.25" y="-10.83" font-family="Times New Roman,serif" font-size="24.00">start</text>
</g>
<!-- start&#45;&gt;q0 -->
<g id="edge1" class="edge">
<title>start&#45;&gt;q0</title>
<path fill="none" stroke="black" d="M56.09,-20.13C64.31,-20.13 73.41,-20.13 81.87,-20.13"/>
<polygon fill="black" stroke="black" points="81.72,-23.63 91.72,-20.13 81.72,-16.63 81.72,-23.63"/>
</g>
</g>
</svg>
