<?xml version="1.0" encoding="UTF-8" standalone="no"?>
<!DOCTYPE svg PUBLIC "-//W3C//DTD SVG 1.1//EN"
 "http://www.w3.org/Graphics/SVG/1.1/DTD/svg11.dtd">
<!-- Generated by graphviz version 10.0.1 (20240210.2158)
 -->
<!-- Pages: 1 -->
<svg width="148pt" height="110pt"
 viewBox="0.00 0.00 147.50 110.13" xmlns="http://www.w3.org/2000/svg" xmlns:xlink="http://www.w3.org/1999/xlink">
<g id="graph0" class="graph" transform="scale(1 1) rotate(0) translate(4 106.13)">
<polygon fill="white" stroke="none" points="-4,4 -4,-106.13 143.5,-106.13 143.5,4 -4,4"/>
<!-- q0 -->
<g id="node1" class="node">
<title>q0</title>
<ellipse fill="none" stroke="black" cx="119.38" cy="-48" rx="20.13" ry="20.13"/>
<text text-anchor="middle" x="119.38" y="-42.58" font-family="Times New Roman,serif" font-size="14.00">q0</text>
</g>
<!-- q0&#45;&gt;q0 -->
<g id="edge2" class="edge">
<title>q0&#45;&gt;q0</title>
<path fill="none" stroke="black" d="M111.92,-66.83C110.65,-76.93 113.13,-86.13 119.38,-86.13 123.08,-86.13 125.46,-82.88 126.52,-78.14"/>
<polygon fill="black" stroke="black" points="130.02,-78.44 126.79,-68.34 123.02,-78.24 130.02,-78.44"/>
<text text-anchor="middle" x="119.38" y="-88.58" font-family="Times New Roman,serif" font-size="14.00">0</text>
</g>
<!-- q1 -->
<g id="node2" class="node">
<title>q1</title>
<ellipse fill="none" stroke="black" cx="28.25" cy="-78" rx="20.13" ry="20.13"/>
<ellipse fill="none" stroke="black" cx="28.25" cy="-78" rx="24.13" ry="24.13"/>
<text text-anchor="middle" x="28.25" y="-72.58" font-family="Times New Roman,serif" font-size="14.00">q1</text>
</g>
<!-- q1&#45;&gt;q0 -->
<g id="edge3" class="edge">
<title>q1&#45;&gt;q0</title>
<path fill="none" stroke="black" d="M51.28,-70.58C62.73,-66.73 76.86,-61.97 89.2,-57.82"/>
<polygon fill="black" stroke="black" points="90.11,-61.21 98.47,-54.7 87.88,-54.57 90.11,-61.21"/>
<text text-anchor="middle" x="77.88" y="-64.45" font-family="Times New Roman,serif" font-size="14.00">0</text>
</g>
<!-- start -->
<g id="node3" class="node">
<title>start</title>
<text text-anchor="middle" x="28.25" y="-8.7" font-family="Times New Roman,serif" font-size="24.00">start</text>
</g>
<!-- start&#45;&gt;q0 -->
<g id="edge1" class="edge">
<title>start&#45;&gt;q0</title>
<path fill="none" stroke="black" d="M56.48,-27.16C66.78,-30.63 78.54,-34.59 89.03,-38.12"/>
<polygon fill="black" stroke="black" points="87.75,-41.38 98.34,-41.26 89.98,-34.75 87.75,-41.38"/>
</g>
</g>
</svg>
