<?xml version="1.0" encoding="UTF-8" standalone="no"?>
<!DOCTYPE svg PUBLIC "-//W3C//DTD SVG 1.1//EN"
 "http://www.w3.org/Graphics/SVG/1.1/DTD/svg11.dtd">
<!-- Generated by graphviz version 10.0.1 (20240210.2158)
 -->
<!-- Pages: 1 -->
<svg width="399pt" height="84pt"
 viewBox="0.00 0.00 398.76 84.25" xmlns="http://www.w3.org/2000/svg" xmlns:xlink="http://www.w3.org/1999/xlink">
<g id="graph0" class="graph" transform="scale(1 1) rotate(0) translate(4 80.25)">
<polygon fill="white" stroke="none" points="-4,4 -4,-80.25 394.76,-80.25 394.76,4 -4,4"/>
<!-- q0 -->
<g id="node1" class="node">
<title>q0</title>
<ellipse fill="none" stroke="black" cx="113.63" cy="-24.13" rx="20.13" ry="20.13"/>
<text text-anchor="middle" x="113.63" y="-18.7" font-family="Times New Roman,serif" font-size="14.00">q0</text>
</g>
<!-- q1 -->
<g id="node2" class="node">
<title>q1</title>
<ellipse fill="none" stroke="black" cx="196.63" cy="-56.13" rx="20.13" ry="20.13"/>
<text text-anchor="middle" x="196.63" y="-50.7" font-family="Times New Roman,serif" font-size="14.00">q1</text>
</g>
<!-- q0&#45;&gt;q1 -->
<g id="edge2" class="edge">
<title>q0&#45;&gt;q1</title>
<path fill="none" stroke="black" d="M132.6,-31.23C142.71,-35.22 155.55,-40.29 167,-44.82"/>
<polygon fill="black" stroke="black" points="165.43,-47.96 176.01,-48.38 168,-41.45 165.43,-47.96"/>
<text text-anchor="middle" x="155.13" y="-43.58" font-family="Times New Roman,serif" font-size="14.00">0</text>
</g>
<!-- q2 -->
<g id="node4" class="node">
<title>q2</title>
<ellipse fill="none" stroke="black" cx="279.63" cy="-56.13" rx="20.13" ry="20.13"/>
<text text-anchor="middle" x="279.63" y="-50.7" font-family="Times New Roman,serif" font-size="14.00">q2</text>
</g>
<!-- q1&#45;&gt;q2 -->
<g id="edge3" class="edge">
<title>q1&#45;&gt;q2</title>
<path fill="none" stroke="black" d="M217.24,-56.13C226.39,-56.13 237.51,-56.13 247.75,-56.13"/>
<polygon fill="black" stroke="black" points="247.69,-59.63 257.69,-56.13 247.69,-52.63 247.69,-59.63"/>
<text text-anchor="middle" x="238.13" y="-58.58" font-family="Times New Roman,serif" font-size="14.00">0</text>
</g>
<!-- q3 -->
<g id="node3" class="node">
<title>q3</title>
<ellipse fill="none" stroke="black" cx="366.63" cy="-24.13" rx="20.13" ry="20.13"/>
<ellipse fill="none" stroke="black" cx="366.63" cy="-24.13" rx="24.13" ry="24.13"/>
<text text-anchor="middle" x="366.63" y="-18.7" font-family="Times New Roman,serif" font-size="14.00">q3</text>
</g>
<!-- q3&#45;&gt;q0 -->
<g id="edge5" class="edge">
<title>q3&#45;&gt;q0</title>
<path fill="none" stroke="black" d="M342.34,-24.13C296.78,-24.13 195.9,-24.13 145.1,-24.13"/>
<polygon fill="black" stroke="black" points="145.42,-20.63 135.42,-24.13 145.42,-27.63 145.42,-20.63"/>
<text text-anchor="middle" x="238.13" y="-26.58" font-family="Times New Roman,serif" font-size="14.00">0</text>
</g>
<!-- q2&#45;&gt;q3 -->
<g id="edge4" class="edge">
<title>q2&#45;&gt;q3</title>
<path fill="none" stroke="black" d="M298.66,-49.34C308.63,-45.59 321.33,-40.81 332.98,-36.42"/>
<polygon fill="black" stroke="black" points="334.17,-39.71 342.29,-32.91 331.7,-33.16 334.17,-39.71"/>
<text text-anchor="middle" x="321.13" y="-44.58" font-family="Times New Roman,serif" font-size="14.00">0</text>
</g>
<!-- start -->
<g id="node5" class="node">
<title>start</title>
<text text-anchor="middle" x="28.25" y="-14.83" font-family="Times New Roman,serif" font-size="24.00">start</text>
</g>
<!-- start&#45;&gt;q0 -->
<g id="edge1" class="edge">
<title>start&#45;&gt;q0</title>
<path fill="none" stroke="black" d="M56.09,-24.13C64.31,-24.13 73.41,-24.13 81.87,-24.13"/>
<polygon fill="black" stroke="black" points="81.72,-27.63 91.72,-24.13 81.72,-20.63 81.72,-27.63"/>
</g>
</g>
</svg>
