<?xml version="1.0" encoding="UTF-8" standalone="no"?>
<!DOCTYPE svg PUBLIC "-//W3C//DTD SVG 1.1//EN"
 "http://www.w3.org/Graphics/SVG/1.1/DTD/svg11.dtd">
<!-- Generated by graphviz version 10.0.1 (20240210.2158)
 -->
<!-- Pages: 1 -->
<svg width="316pt" height="128pt"
 viewBox="0.00 0.00 315.76 128.00" xmlns="http://www.w3.org/2000/svg" xmlns:xlink="http://www.w3.org/1999/xlink">
<g id="graph0" class="graph" transform="scale(1 1) rotate(0) translate(4 124)">
<polygon fill="white" stroke="none" points="-4,4 -4,-124 311.76,-124 311.76,4 -4,4"/>
<!-- q0 -->
<g id="node1" class="node">
<title>q0</title>
<ellipse fill="none" stroke="black" cx="113.63" cy="-20.13" rx="20.13" ry="20.13"/>
<text text-anchor="middle" x="113.63" y="-14.7" font-family="Times New Roman,serif" font-size="14.00">q0</text>
</g>
<!-- q0&#45;&gt;q0 -->
<g id="edge3" class="edge">
<title>q0&#45;&gt;q0</title>
<path fill="none" stroke="black" d="M106.64,-39.35C105.56,-49.29 107.89,-58.25 113.63,-58.25 116.94,-58.25 119.12,-55.26 120.16,-50.81"/>
<polygon fill="black" stroke="black" points="123.65,-50.99 120.55,-40.86 116.66,-50.72 123.65,-50.99"/>
<text text-anchor="middle" x="113.63" y="-60.7" font-family="Times New Roman,serif" font-size="14.00">1</text>
</g>
<!-- q2 -->
<g id="node3" class="node">
<title>q2</title>
<ellipse fill="none" stroke="black" cx="200.63" cy="-62.13" rx="20.13" ry="20.13"/>
<ellipse fill="none" stroke="black" cx="200.63" cy="-62.13" rx="24.13" ry="24.13"/>
<text text-anchor="middle" x="200.63" y="-56.7" font-family="Times New Roman,serif" font-size="14.00">q2</text>
</g>
<!-- q0&#45;&gt;q2 -->
<g id="edge2" class="edge">
<title>q0&#45;&gt;q2</title>
<path fill="none" stroke="black" d="M132.24,-28.83C142.62,-33.96 156.06,-40.6 168.2,-46.6"/>
<polygon fill="black" stroke="black" points="166.56,-49.69 177.07,-50.98 169.66,-43.41 166.56,-49.69"/>
<text text-anchor="middle" x="155.13" y="-43.58" font-family="Times New Roman,serif" font-size="14.00">0</text>
</g>
<!-- q1 -->
<g id="node2" class="node">
<title>q1</title>
<ellipse fill="none" stroke="black" cx="287.63" cy="-20.13" rx="20.13" ry="20.13"/>
<text text-anchor="middle" x="287.63" y="-14.7" font-family="Times New Roman,serif" font-size="14.00">q1</text>
</g>
<!-- q1&#45;&gt;q0 -->
<g id="edge4" class="edge">
<title>q1&#45;&gt;q0</title>
<path fill="none" stroke="black" d="M267.44,-17.49C255.25,-15.95 239.11,-14.16 224.75,-13.38 203.34,-12.21 197.92,-12.21 176.5,-13.38 166.3,-13.93 155.19,-15 145.24,-16.12"/>
<polygon fill="black" stroke="black" points="144.83,-12.64 135.32,-17.31 145.66,-19.6 144.83,-12.64"/>
<text text-anchor="middle" x="200.63" y="-16.58" font-family="Times New Roman,serif" font-size="14.00">0</text>
</g>
<!-- q1&#45;&gt;q1 -->
<g id="edge5" class="edge">
<title>q1&#45;&gt;q1</title>
<path fill="none" stroke="black" d="M280.17,-38.96C278.9,-49.05 281.39,-58.25 287.63,-58.25 291.34,-58.25 293.72,-55.01 294.78,-50.26"/>
<polygon fill="black" stroke="black" points="298.27,-50.56 295.05,-40.47 291.27,-50.37 298.27,-50.56"/>
<text text-anchor="middle" x="287.63" y="-60.7" font-family="Times New Roman,serif" font-size="14.00">1</text>
</g>
<!-- q2&#45;&gt;q1 -->
<g id="edge7" class="edge">
<title>q2&#45;&gt;q1</title>
<path fill="none" stroke="black" d="M222.64,-51.74C233.56,-46.35 247.04,-39.69 258.81,-33.87"/>
<polygon fill="black" stroke="black" points="260.24,-37.07 267.66,-29.5 257.14,-30.79 260.24,-37.07"/>
<text text-anchor="middle" x="246.13" y="-43.58" font-family="Times New Roman,serif" font-size="14.00">1</text>
</g>
<!-- q2&#45;&gt;q2 -->
<g id="edge6" class="edge">
<title>q2&#45;&gt;q2</title>
<path fill="none" stroke="black" d="M192.23,-85.09C191.43,-95.37 194.23,-104.25 200.63,-104.25 204.43,-104.25 206.96,-101.12 208.22,-96.42"/>
<polygon fill="black" stroke="black" points="211.7,-96.83 208.92,-86.6 204.72,-96.33 211.7,-96.83"/>
<text text-anchor="middle" x="200.63" y="-106.7" font-family="Times New Roman,serif" font-size="14.00">0</text>
</g>
<!-- start -->
<g id="node4" class="node">
<title>start</title>
<text text-anchor="middle" x="28.25" y="-10.83" font-family="Times New Roman,serif" font-size="24.00">start</text>
</g>
<!-- start&#45;&gt;q0 -->
<g id="edge1" class="edge">
<title>start&#45;&gt;q0</title>
<path fill="none" stroke="black" d="M56.09,-20.13C64.31,-20.13 73.41,-20.13 81.87,-20.13"/>
<polygon fill="black" stroke="black" points="81.72,-23.63 91.72,-20.13 81.72,-16.63 81.72,-23.63"/>
</g>
</g>
</svg>
