<?xml version="1.0" encoding="UTF-8" standalone="no"?>
<!DOCTYPE svg PUBLIC "-//W3C//DTD SVG 1.1//EN"
 "http://www.w3.org/Graphics/SVG/1.1/DTD/svg11.dtd">
<!-- Generated by graphviz version 10.0.1 (20240210.2158)
 -->
<!-- Pages: 1 -->
<svg width="148pt" height="150pt"
 viewBox="0.00 0.00 147.50 149.88" xmlns="http://www.w3.org/2000/svg" xmlns:xlink="http://www.w3.org/1999/xlink">
<g id="graph0" class="graph" transform="scale(1 1) rotate(0) translate(4 145.88)">
<polygon fill="white" stroke="none" points="-4,4 -4,-145.88 143.5,-145.88 143.5,4 -4,4"/>
<!-- q1 -->
<g id="node1" class="node">
<title>q1</title>
<ellipse fill="none" stroke="black" cx="28.25" cy="-84" rx="20.13" ry="20.13"/>
<ellipse fill="none" stroke="black" cx="28.25" cy="-84" rx="24.13" ry="24.13"/>
<text text-anchor="middle" x="28.25" y="-78.58" font-family="Times New Roman,serif" font-size="14.00">q1</text>
</g>
<!-- q1&#45;&gt;q1 -->
<g id="edge4" class="edge">
<title>q1&#45;&gt;q1</title>
<path fill="none" stroke="black" d="M19.13,-106.54C18.13,-116.99 21.17,-126.13 28.25,-126.13 32.56,-126.13 35.37,-122.73 36.69,-117.72"/>
<polygon fill="black" stroke="black" points="40.16,-118.24 37.28,-108.05 33.18,-117.82 40.16,-118.24"/>
<text text-anchor="middle" x="28.25" y="-128.58" font-family="Times New Roman,serif" font-size="14.00">0</text>
</g>
<!-- q0 -->
<g id="node2" class="node">
<title>q0</title>
<ellipse fill="none" stroke="black" cx="119.38" cy="-51" rx="20.13" ry="20.13"/>
<text text-anchor="middle" x="119.38" y="-45.58" font-family="Times New Roman,serif" font-size="14.00">q0</text>
</g>
<!-- q1&#45;&gt;q0 -->
<g id="edge5" class="edge">
<title>q1&#45;&gt;q0</title>
<path fill="none" stroke="black" d="M51.99,-77.71C61.17,-74.98 71.81,-71.6 81.25,-68 84.29,-66.84 87.44,-65.55 90.55,-64.21"/>
<polygon fill="black" stroke="black" points="91.75,-67.51 99.44,-60.23 88.89,-61.12 91.75,-67.51"/>
<text text-anchor="middle" x="77.88" y="-72.45" font-family="Times New Roman,serif" font-size="14.00">1</text>
</g>
<!-- q0&#45;&gt;q1 -->
<g id="edge2" class="edge">
<title>q0&#45;&gt;q1</title>
<path fill="none" stroke="black" d="M99.17,-49.17C91.34,-49.03 82.31,-49.66 74.5,-52.25 68.08,-54.38 61.77,-57.74 55.99,-61.5"/>
<polygon fill="black" stroke="black" points="54.17,-58.5 48.07,-67.16 58.24,-64.19 54.17,-58.5"/>
<text text-anchor="middle" x="77.88" y="-54.45" font-family="Times New Roman,serif" font-size="14.00">0</text>
</g>
<!-- q0&#45;&gt;q0 -->
<g id="edge3" class="edge">
<title>q0&#45;&gt;q0</title>
<path fill="none" stroke="black" d="M111.92,-69.83C110.65,-79.93 113.13,-89.13 119.38,-89.13 123.08,-89.13 125.46,-85.88 126.52,-81.14"/>
<polygon fill="black" stroke="black" points="130.02,-81.44 126.79,-71.34 123.02,-81.24 130.02,-81.44"/>
<text text-anchor="middle" x="119.38" y="-91.58" font-family="Times New Roman,serif" font-size="14.00">1</text>
</g>
<!-- start -->
<g id="node3" class="node">
<title>start</title>
<text text-anchor="middle" x="28.25" y="-8.7" font-family="Times New Roman,serif" font-size="24.00">start</text>
</g>
<!-- start&#45;&gt;q0 -->
<g id="edge1" class="edge">
<title>start&#45;&gt;q0</title>
<path fill="none" stroke="black" d="M56.32,-24.14C64.45,-26.29 73.31,-28.94 81.25,-32 84.52,-33.26 87.89,-34.73 91.19,-36.27"/>
<polygon fill="black" stroke="black" points="89.48,-39.33 99.99,-40.66 92.6,-33.07 89.48,-39.33"/>
</g>
</g>
</svg>
