<?xml version="1.0" encoding="UTF-8" standalone="no"?>
<!DOCTYPE svg PUBLIC "-//W3C//DTD SVG 1.1//EN"
 "http://www.w3.org/Graphics/SVG/1.1/DTD/svg11.dtd">
<!-- Generated by graphviz version 10.0.1 (20240210.2158)
 -->
<!-- Pages: 1 -->
<svg width="148pt" height="160pt"
 viewBox="0.00 0.00 147.50 160.13" xmlns="http://www.w3.org/2000/svg" xmlns:xlink="http://www.w3.org/1999/xlink">
<g id="graph0" class="graph" transform="scale(1 1) rotate(0) translate(4 156.13)">
<polygon fill="white" stroke="none" points="-4,4 -4,-156.13 143.5,-156.13 143.5,4 -4,4"/>
<!-- q1 -->
<g id="node1" class="node">
<title>q1</title>
<ellipse fill="none" stroke="black" cx="28.25" cy="-132" rx="20.13" ry="20.13"/>
<text text-anchor="middle" x="28.25" y="-126.58" font-family="Times New Roman,serif" font-size="14.00">q1</text>
</g>
<!-- q0 -->
<g id="node3" class="node">
<title>q0</title>
<ellipse fill="none" stroke="black" cx="119.38" cy="-74" rx="20.13" ry="20.13"/>
<text text-anchor="middle" x="119.38" y="-68.58" font-family="Times New Roman,serif" font-size="14.00">q0</text>
</g>
<!-- q1&#45;&gt;q0 -->
<g id="edge3" class="edge">
<title>q1&#45;&gt;q0</title>
<path fill="none" stroke="black" d="M45.6,-121.36C58.71,-112.83 77.35,-100.7 92.48,-90.85"/>
<polygon fill="black" stroke="black" points="94.09,-93.98 100.56,-85.59 90.27,-88.11 94.09,-93.98"/>
<text text-anchor="middle" x="77.88" y="-103.45" font-family="Times New Roman,serif" font-size="14.00">0</text>
</g>
<!-- q2 -->
<g id="node2" class="node">
<title>q2</title>
<ellipse fill="none" stroke="black" cx="28.25" cy="-74" rx="20.13" ry="20.13"/>
<text text-anchor="middle" x="28.25" y="-68.58" font-family="Times New Roman,serif" font-size="14.00">q2</text>
</g>
<!-- q2&#45;&gt;q0 -->
<g id="edge4" class="edge">
<title>q2&#45;&gt;q0</title>
<path fill="none" stroke="black" d="M48.59,-74C59.96,-74 74.59,-74 87.52,-74"/>
<polygon fill="black" stroke="black" points="87.25,-77.5 97.25,-74 87.25,-70.5 87.25,-77.5"/>
<text text-anchor="middle" x="77.88" y="-76.45" font-family="Times New Roman,serif" font-size="14.00">0</text>
</g>
<!-- q0&#45;&gt;q0 -->
<g id="edge2" class="edge">
<title>q0&#45;&gt;q0</title>
<path fill="none" stroke="black" d="M111.92,-92.83C110.65,-102.93 113.13,-112.13 119.38,-112.13 123.08,-112.13 125.46,-108.88 126.52,-104.14"/>
<polygon fill="black" stroke="black" points="130.02,-104.44 126.79,-94.34 123.02,-104.24 130.02,-104.44"/>
<text text-anchor="middle" x="119.38" y="-114.58" font-family="Times New Roman,serif" font-size="14.00">0</text>
</g>
<!-- start -->
<g id="node4" class="node">
<title>start</title>
<text text-anchor="middle" x="28.25" y="-8.7" font-family="Times New Roman,serif" font-size="24.00">start</text>
</g>
<!-- start&#45;&gt;q0 -->
<g id="edge1" class="edge">
<title>start&#45;&gt;q0</title>
<path fill="none" stroke="black" d="M56.48,-35.11C67.76,-42.2 80.81,-50.4 92.01,-57.43"/>
<polygon fill="black" stroke="black" points="90.05,-60.34 100.38,-62.69 93.78,-54.41 90.05,-60.34"/>
</g>
</g>
</svg>
