<?xml version="1.0" encoding="UTF-8" standalone="no"?>
<!DOCTYPE svg PUBLIC "-//W3C//DTD SVG 1.1//EN"
 "http://www.w3.org/Graphics/SVG/1.1/DTD/svg11.dtd">
<!-- Generated by graphviz version 10.0.1 (20240210.2158)
 -->
<!-- Pages: 1 -->
<svg width="148pt" height="251pt"
 viewBox="0.00 0.00 147.50 250.75" xmlns="http://www.w3.org/2000/svg" xmlns:xlink="http://www.w3.org/1999/xlink">
<g id="graph0" class="graph" transform="scale(1 1) rotate(0) translate(4 246.75)">
<polygon fill="white" stroke="none" points="-4,4 -4,-246.75 143.5,-246.75 143.5,4 -4,4"/>
<!-- q3 -->
<g id="node1" class="node">
<title>q3</title>
<ellipse fill="none" stroke="black" cx="28.25" cy="-218" rx="20.13" ry="20.13"/>
<text text-anchor="middle" x="28.25" y="-212.57" font-family="Times New Roman,serif" font-size="14.00">q3</text>
</g>
<!-- q0 -->
<g id="node3" class="node">
<title>q0</title>
<ellipse fill="none" stroke="black" cx="119.38" cy="-129" rx="20.13" ry="20.13"/>
<text text-anchor="middle" x="119.38" y="-123.58" font-family="Times New Roman,serif" font-size="14.00">q0</text>
</g>
<!-- q3&#45;&gt;q0 -->
<g id="edge8" class="edge">
<title>q3&#45;&gt;q0</title>
<path fill="none" stroke="black" d="M47.06,-225.62C57.83,-228.96 71.34,-230.76 81.25,-224 101.95,-209.86 111.11,-182.31 115.16,-160.51"/>
<polygon fill="black" stroke="black" points="118.58,-161.33 116.66,-150.91 111.66,-160.25 118.58,-161.33"/>
<text text-anchor="middle" x="77.88" y="-229.45" font-family="Times New Roman,serif" font-size="14.00">0</text>
</g>
<!-- q3&#45;&gt;q0 -->
<g id="edge9" class="edge">
<title>q3&#45;&gt;q0</title>
<path fill="none" stroke="black" d="M43.46,-204.23C53.95,-194.01 68.57,-179.71 81.25,-167 86.38,-161.86 91.87,-156.29 97.01,-151.03"/>
<polygon fill="black" stroke="black" points="99.16,-153.83 103.64,-144.23 94.15,-148.95 99.16,-153.83"/>
<text text-anchor="middle" x="77.88" y="-174.45" font-family="Times New Roman,serif" font-size="14.00">1</text>
</g>
<!-- q1 -->
<g id="node2" class="node">
<title>q1</title>
<ellipse fill="none" stroke="black" cx="28.25" cy="-156" rx="20.13" ry="20.13"/>
<text text-anchor="middle" x="28.25" y="-150.57" font-family="Times New Roman,serif" font-size="14.00">q1</text>
</g>
<!-- q1&#45;&gt;q0 -->
<g id="edge4" class="edge">
<title>q1&#45;&gt;q0</title>
<path fill="none" stroke="black" d="M48.3,-153.46C58.26,-151.85 70.57,-149.42 81.25,-146 84.35,-145.01 87.54,-143.82 90.67,-142.55"/>
<polygon fill="black" stroke="black" points="91.84,-145.86 99.58,-138.62 89.02,-139.45 91.84,-145.86"/>
<text text-anchor="middle" x="77.88" y="-149.45" font-family="Times New Roman,serif" font-size="14.00">0</text>
</g>
<!-- q1&#45;&gt;q0 -->
<g id="edge5" class="edge">
<title>q1&#45;&gt;q0</title>
<path fill="none" stroke="black" d="M44.03,-143.09C52.37,-136.68 63.33,-129.59 74.5,-126.25 78.82,-124.96 83.48,-124.41 88.1,-124.33"/>
<polygon fill="black" stroke="black" points="87.57,-127.8 97.74,-124.85 87.95,-120.81 87.57,-127.8"/>
<text text-anchor="middle" x="77.88" y="-128.45" font-family="Times New Roman,serif" font-size="14.00">1</text>
</g>
<!-- q0&#45;&gt;q0 -->
<g id="edge2" class="edge">
<title>q0&#45;&gt;q0</title>
<path fill="none" stroke="black" d="M115.58,-149.01C115.11,-158.63 116.38,-167.13 119.38,-167.13 121.06,-167.13 122.2,-164.44 122.79,-160.37"/>
<polygon fill="black" stroke="black" points="126.28,-160.63 123.12,-150.52 119.29,-160.4 126.28,-160.63"/>
<text text-anchor="middle" x="119.38" y="-169.58" font-family="Times New Roman,serif" font-size="14.00">0</text>
</g>
<!-- q0&#45;&gt;q0 -->
<g id="edge3" class="edge">
<title>q0&#45;&gt;q0</title>
<path fill="none" stroke="black" d="M112.98,-148.56C109.87,-166.21 112,-185.13 119.38,-185.13 125.2,-185.13 127.75,-173.35 127.04,-159.71"/>
<polygon fill="black" stroke="black" points="130.55,-159.6 125.94,-150.06 123.6,-160.39 130.55,-159.6"/>
<text text-anchor="middle" x="119.38" y="-187.58" font-family="Times New Roman,serif" font-size="14.00">1</text>
</g>
<!-- q2 -->
<g id="node4" class="node">
<title>q2</title>
<ellipse fill="none" stroke="black" cx="28.25" cy="-82" rx="20.13" ry="20.13"/>
<text text-anchor="middle" x="28.25" y="-76.58" font-family="Times New Roman,serif" font-size="14.00">q2</text>
</g>
<!-- q2&#45;&gt;q0 -->
<g id="edge6" class="edge">
<title>q2&#45;&gt;q0</title>
<path fill="none" stroke="black" d="M47.44,-88.83C57.6,-92.88 70.37,-98.36 81.25,-104.25 85.2,-106.39 89.26,-108.83 93.19,-111.32"/>
<polygon fill="black" stroke="black" points="90.98,-114.06 101.25,-116.66 94.84,-108.22 90.98,-114.06"/>
<text text-anchor="middle" x="77.88" y="-106.45" font-family="Times New Roman,serif" font-size="14.00">0</text>
</g>
<!-- q2&#45;&gt;q0 -->
<g id="edge7" class="edge">
<title>q2&#45;&gt;q0</title>
<path fill="none" stroke="black" d="M47.95,-77.75C58.27,-76.35 71.03,-76.25 81.25,-81.25 90.24,-85.65 97.68,-93.38 103.47,-101.36"/>
<polygon fill="black" stroke="black" points="100.53,-103.26 108.91,-109.75 106.4,-99.45 100.53,-103.26"/>
<text text-anchor="middle" x="77.88" y="-83.45" font-family="Times New Roman,serif" font-size="14.00">1</text>
</g>
<!-- start -->
<g id="node5" class="node">
<title>start</title>
<text text-anchor="middle" x="28.25" y="-8.7" font-family="Times New Roman,serif" font-size="24.00">start</text>
</g>
<!-- start&#45;&gt;q0 -->
<g id="edge1" class="edge">
<title>start&#45;&gt;q0</title>
<path fill="none" stroke="black" d="M46.85,-35.53C57.28,-46.26 70.53,-60.49 81.25,-74 88.4,-83.01 95.63,-93.36 101.78,-102.64"/>
<polygon fill="black" stroke="black" points="98.76,-104.42 107.15,-110.89 104.63,-100.6 98.76,-104.42"/>
</g>
</g>
</svg>
