<?xml version="1.0" encoding="UTF-8" standalone="no"?>
<!DOCTYPE svg PUBLIC "-//W3C//DTD SVG 1.1//EN"
 "http://www.w3.org/Graphics/SVG/1.1/DTD/svg11.dtd">
<!-- Generated by graphviz version 10.0.1 (20240210.2158)
 -->
<!-- Pages: 1 -->
<svg width="322pt" height="49pt"
 viewBox="0.00 0.00 321.50 48.75" xmlns="http://www.w3.org/2000/svg" xmlns:xlink="http://www.w3.org/1999/xlink">
<g id="graph0" class="graph" transform="scale(1 1) rotate(0) translate(4 44.75)">
<polygon fill="#e5e7eb" stroke="none" points="-4,4 -4,-44.75 317.5,-44.75 317.5,4 -4,4"/>
<!-- q1 -->
<g id="node1" class="node">
<title>q1</title>
<ellipse fill="none" stroke="black" cx="196.63" cy="-20.63" rx="20.13" ry="20.13"/>
<text text-anchor="middle" x="196.63" y="-15.2" font-family="Times New Roman,serif" font-size="14.00">q1</text>
</g>
<!-- q2 -->
<g id="node4" class="node">
<title>q2</title>
<ellipse fill="none" stroke="black" cx="286.5" cy="-20.63" rx="27" ry="18"/>
<text text-anchor="middle" x="286.5" y="-15.2" font-family="Times New Roman,serif" font-size="14.00">q2</text>
</g>
<!-- q1&#45;&gt;q2 -->
<g id="edge2" class="edge">
<title>q1&#45;&gt;q2</title>
<path fill="none" stroke="black" d="M217.13,-20.63C226.19,-20.63 237.28,-20.63 247.88,-20.63"/>
<polygon fill="black" stroke="black" points="247.54,-24.13 257.54,-20.63 247.54,-17.13 247.54,-24.13"/>
<text text-anchor="middle" x="238.13" y="-23.08" font-family="Times New Roman,serif" font-size="14.00">1</text>
</g>
<!-- q0 -->
<g id="node2" class="node">
<title>q0</title>
<ellipse fill="none" stroke="black" cx="113.63" cy="-20.63" rx="20.13" ry="20.13"/>
<text text-anchor="middle" x="113.63" y="-15.2" font-family="Times New Roman,serif" font-size="14.00">q0</text>
</g>
<!-- q0&#45;&gt;q1 -->
<g id="edge3" class="edge">
<title>q0&#45;&gt;q1</title>
<path fill="none" stroke="black" d="M134.23,-20.63C143.39,-20.63 154.5,-20.63 164.75,-20.63"/>
<polygon fill="black" stroke="black" points="164.69,-24.13 174.69,-20.63 164.69,-17.13 164.69,-24.13"/>
<text text-anchor="middle" x="155.13" y="-23.08" font-family="Times New Roman,serif" font-size="14.00">1</text>
</g>
<!-- q0&#45;&gt;q1 -->
<g id="edge4" class="edge">
<title>q0&#45;&gt;q1</title>
<path fill="none" stroke="black" d="M130.92,-9.74C137.17,-6.18 144.53,-2.68 151.75,-0.88 158.03,0.69 164.53,-0.5 170.54,-2.93"/>
<polygon fill="black" stroke="black" points="168.87,-6 179.34,-7.58 172.14,0.19 168.87,-6"/>
<text text-anchor="middle" x="155.13" y="-4.08" font-family="Times New Roman,serif" font-size="14.00">ε</text>
</g>
<!-- start -->
<g id="node3" class="node">
<title>start</title>
<text text-anchor="middle" x="28.25" y="-11.33" font-family="Times New Roman,serif" font-size="24.00">start</text>
</g>
<!-- start&#45;&gt;q0 -->
<g id="edge1" class="edge">
<title>start&#45;&gt;q0</title>
<path fill="none" stroke="black" d="M56.09,-20.63C64.31,-20.63 73.41,-20.63 81.87,-20.63"/>
<polygon fill="black" stroke="black" points="81.72,-24.13 91.72,-20.63 81.72,-17.13 81.72,-24.13"/>
</g>
</g>
</svg>
