<?xml version="1.0" encoding="UTF-8" standalone="no"?>
<!DOCTYPE svg PUBLIC "-//W3C//DTD SVG 1.1//EN"
 "http://www.w3.org/Graphics/SVG/1.1/DTD/svg11.dtd">
<!-- Generated by graphviz version 10.0.1 (20240210.2158)
 -->
<!-- Pages: 1 -->
<svg width="161pt" height="150pt"
 viewBox="0.00 0.00 161.25 149.88" xmlns="http://www.w3.org/2000/svg" xmlns:xlink="http://www.w3.org/1999/xlink">
<g id="graph0" class="graph" transform="scale(1 1) rotate(0) translate(4 145.88)">
<polygon fill="#e5e7eb" stroke="none" points="-4,4 -4,-145.88 157.25,-145.88 157.25,4 -4,4"/>
<!-- q1 -->
<g id="node1" class="node">
<title>q1</title>
<ellipse fill="none" stroke="black" cx="28.25" cy="-84" rx="20.13" ry="20.13"/>
<ellipse fill="none" stroke="black" cx="28.25" cy="-84" rx="24.13" ry="24.13"/>
<text text-anchor="middle" x="28.25" y="-78.58" font-family="Times New Roman,serif" font-size="14.00">q1</text>
</g>
<!-- q1&#45;&gt;q1 -->
<g id="edge4" class="edge">
<title>q1&#45;&gt;q1</title>
<path fill="none" stroke="black" d="M19.13,-106.54C18.13,-116.99 21.17,-126.13 28.25,-126.13 32.56,-126.13 35.37,-122.73 36.69,-117.72"/>
<polygon fill="black" stroke="black" points="40.16,-118.24 37.28,-108.05 33.18,-117.82 40.16,-118.24"/>
<text text-anchor="middle" x="28.25" y="-128.58" font-family="Times New Roman,serif" font-size="14.00">0</text>
</g>
<!-- q0 -->
<g id="node2" class="node">
<title>q0</title>
<ellipse fill="none" stroke="black" cx="126.25" cy="-51" rx="27" ry="18"/>
<text text-anchor="middle" x="126.25" y="-45.58" font-family="Times New Roman,serif" font-size="14.00">q0</text>
</g>
<!-- q1&#45;&gt;q0 -->
<g id="edge5" class="edge">
<title>q1&#45;&gt;q0</title>
<path fill="none" stroke="black" d="M51.89,-77.41C61.05,-74.65 71.7,-71.31 81.25,-68 84.73,-66.79 88.35,-65.49 91.95,-64.15"/>
<polygon fill="black" stroke="black" points="93.01,-67.49 101.11,-60.67 90.52,-60.95 93.01,-67.49"/>
<text text-anchor="middle" x="77.88" y="-71.45" font-family="Times New Roman,serif" font-size="14.00">1</text>
</g>
<!-- q0&#45;&gt;q1 -->
<g id="edge2" class="edge">
<title>q0&#45;&gt;q1</title>
<path fill="none" stroke="black" d="M99.19,-48.76C91.11,-48.82 82.28,-49.69 74.5,-52.25 68.08,-54.37 61.76,-57.72 55.98,-61.48"/>
<polygon fill="black" stroke="black" points="54.16,-58.48 48.06,-67.14 58.23,-64.17 54.16,-58.48"/>
<text text-anchor="middle" x="77.88" y="-54.45" font-family="Times New Roman,serif" font-size="14.00">0</text>
</g>
<!-- q0&#45;&gt;q0 -->
<g id="edge3" class="edge">
<title>q0&#45;&gt;q0</title>
<path fill="none" stroke="black" d="M117.61,-68.41C116,-78.09 118.88,-87 126.25,-87 130.51,-87 133.27,-84.02 134.53,-79.64"/>
<polygon fill="black" stroke="black" points="138.02,-80.03 134.84,-69.92 131.02,-79.81 138.02,-80.03"/>
<text text-anchor="middle" x="126.25" y="-89.45" font-family="Times New Roman,serif" font-size="14.00">1</text>
</g>
<!-- start -->
<g id="node3" class="node">
<title>start</title>
<text text-anchor="middle" x="28.25" y="-8.7" font-family="Times New Roman,serif" font-size="24.00">start</text>
</g>
<!-- start&#45;&gt;q0 -->
<g id="edge1" class="edge">
<title>start&#45;&gt;q0</title>
<path fill="none" stroke="black" d="M56.47,-24.53C64.52,-26.68 73.3,-29.23 81.25,-32 85.17,-33.37 89.24,-34.92 93.25,-36.54"/>
<polygon fill="black" stroke="black" points="91.59,-39.65 102.17,-40.31 94.32,-33.2 91.59,-39.65"/>
</g>
</g>
</svg>
