<?xml version="1.0" encoding="UTF-8" standalone="no"?>
<!DOCTYPE svg PUBLIC "-//W3C//DTD SVG 1.1//EN"
 "http://www.w3.org/Graphics/SVG/1.1/DTD/svg11.dtd">
<!-- Generated by graphviz version 10.0.1 (20240210.2158)
 -->
<!-- Pages: 1 -->
<svg width="252pt" height="140pt"
 viewBox="0.00 0.00 252.25 139.75" xmlns="http://www.w3.org/2000/svg" xmlns:xlink="http://www.w3.org/1999/xlink">
<g id="graph0" class="graph" transform="scale(1 1) rotate(0) translate(4 135.75)">
<polygon fill="#e5e7eb" stroke="none" points="-4,4 -4,-135.75 248.25,-135.75 248.25,4 -4,4"/>
<!-- q2 -->
<g id="node1" class="node">
<title>q2</title>
<ellipse fill="none" stroke="black" cx="27" cy="-80" rx="27" ry="18"/>
<text text-anchor="middle" x="27" y="-74.58" font-family="Times New Roman,serif" font-size="14.00">q2</text>
</g>
<!-- q2&#45;&gt;q2 -->
<g id="edge7" class="edge">
<title>q2&#45;&gt;q2</title>
<path fill="none" stroke="black" d="M18.36,-97.41C16.75,-107.09 19.63,-116 27,-116 31.26,-116 34.02,-113.02 35.28,-108.64"/>
<polygon fill="black" stroke="black" points="38.77,-109.03 35.59,-98.92 31.77,-108.81 38.77,-109.03"/>
<text text-anchor="middle" x="27" y="-118.45" font-family="Times New Roman,serif" font-size="14.00">1</text>
</g>
<!-- q1 -->
<g id="node2" class="node">
<title>q1</title>
<ellipse fill="none" stroke="black" cx="125" cy="-81" rx="27" ry="18"/>
<text text-anchor="middle" x="125" y="-75.58" font-family="Times New Roman,serif" font-size="14.00">q1</text>
</g>
<!-- q2&#45;&gt;q1 -->
<g id="edge6" class="edge">
<title>q2&#45;&gt;q1</title>
<path fill="none" stroke="black" d="M54.49,-80.28C64.35,-80.38 75.74,-80.5 86.41,-80.61"/>
<polygon fill="black" stroke="black" points="86.05,-84.1 96.09,-80.71 86.12,-77.11 86.05,-84.1"/>
<text text-anchor="middle" x="75.38" y="-82.45" font-family="Times New Roman,serif" font-size="14.00">0</text>
</g>
<!-- q1&#45;&gt;q2 -->
<g id="edge4" class="edge">
<title>q1&#45;&gt;q2</title>
<path fill="none" stroke="black" d="M102.91,-70.25C95.47,-67.01 86.92,-63.88 78.75,-62.25 71.95,-60.9 64.82,-61.82 58.12,-63.82"/>
<polygon fill="black" stroke="black" points="56.87,-60.55 48.82,-67.44 59.4,-67.08 56.87,-60.55"/>
<text text-anchor="middle" x="75.38" y="-64.45" font-family="Times New Roman,serif" font-size="14.00">0</text>
</g>
<!-- q0 -->
<g id="node3" class="node">
<title>q0</title>
<ellipse fill="none" stroke="black" cx="220.13" cy="-51" rx="20.13" ry="20.13"/>
<ellipse fill="none" stroke="black" cx="220.13" cy="-51" rx="24.13" ry="24.13"/>
<text text-anchor="middle" x="220.13" y="-45.58" font-family="Times New Roman,serif" font-size="14.00">q0</text>
</g>
<!-- q1&#45;&gt;q0 -->
<g id="edge5" class="edge">
<title>q1&#45;&gt;q0</title>
<path fill="none" stroke="black" d="M151.08,-75.52C159.69,-73.43 169.34,-70.86 178,-68 180.93,-67.04 183.94,-65.96 186.94,-64.83"/>
<polygon fill="black" stroke="black" points="188.17,-68.11 196.17,-61.16 185.59,-61.6 188.17,-68.11"/>
<text text-anchor="middle" x="174.62" y="-71.45" font-family="Times New Roman,serif" font-size="14.00">1</text>
</g>
<!-- q0&#45;&gt;q1 -->
<g id="edge3" class="edge">
<title>q0&#45;&gt;q1</title>
<path fill="none" stroke="black" d="M195.83,-49.12C187.89,-49.13 179.04,-49.87 171.25,-52.25 164.75,-54.23 158.27,-57.42 152.34,-60.97"/>
<polygon fill="black" stroke="black" points="150.66,-57.89 144.22,-66.3 154.5,-63.74 150.66,-57.89"/>
<text text-anchor="middle" x="174.62" y="-54.45" font-family="Times New Roman,serif" font-size="14.00">1</text>
</g>
<!-- q0&#45;&gt;q0 -->
<g id="edge2" class="edge">
<title>q0&#45;&gt;q0</title>
<path fill="none" stroke="black" d="M211.73,-73.97C210.93,-84.24 213.73,-93.13 220.13,-93.13 223.93,-93.13 226.46,-89.99 227.72,-85.3"/>
<polygon fill="black" stroke="black" points="231.2,-85.7 228.42,-75.48 224.21,-85.2 231.2,-85.7"/>
<text text-anchor="middle" x="220.13" y="-95.58" font-family="Times New Roman,serif" font-size="14.00">0</text>
</g>
<!-- start -->
<g id="node4" class="node">
<title>start</title>
<text text-anchor="middle" x="125" y="-8.7" font-family="Times New Roman,serif" font-size="24.00">start</text>
</g>
<!-- start&#45;&gt;q0 -->
<g id="edge1" class="edge">
<title>start&#45;&gt;q0</title>
<path fill="none" stroke="black" d="M152.94,-27.54C163.3,-31.22 175.26,-35.45 186.13,-39.31"/>
<polygon fill="black" stroke="black" points="184.94,-42.6 195.53,-42.64 187.27,-36 184.94,-42.6"/>
</g>
</g>
</svg>
