<?xml version="1.0" encoding="UTF-8" standalone="no"?>
<!DOCTYPE svg PUBLIC "-//W3C//DTD SVG 1.1//EN"
 "http://www.w3.org/Graphics/SVG/1.1/DTD/svg11.dtd">
<!-- Generated by graphviz version 10.0.1 (20240210.2158)
 -->
<!-- Pages: 1 -->
<svg width="161pt" height="216pt"
 viewBox="0.00 0.00 161.25 215.75" xmlns="http://www.w3.org/2000/svg" xmlns:xlink="http://www.w3.org/1999/xlink">
<g id="graph0" class="graph" transform="scale(1 1) rotate(0) translate(4 211.75)">
<polygon fill="#e5e7eb" stroke="none" points="-4,4 -4,-211.75 157.25,-211.75 157.25,4 -4,4"/>
<!-- q1 -->
<g id="node1" class="node">
<title>q1</title>
<ellipse fill="none" stroke="black" cx="28.25" cy="-109" rx="27" ry="18"/>
<text text-anchor="middle" x="28.25" y="-103.58" font-family="Times New Roman,serif" font-size="14.00">q1</text>
</g>
<!-- q2 -->
<g id="node2" class="node">
<title>q2</title>
<ellipse fill="none" stroke="black" cx="126.25" cy="-156" rx="27" ry="18"/>
<text text-anchor="middle" x="126.25" y="-150.57" font-family="Times New Roman,serif" font-size="14.00">q2</text>
</g>
<!-- q1&#45;&gt;q2 -->
<g id="edge4" class="edge">
<title>q1&#45;&gt;q2</title>
<path fill="none" stroke="black" d="M43.85,-124.09C52.14,-131.79 63.12,-140.64 74.5,-146 78.8,-148.02 83.48,-149.64 88.21,-150.92"/>
<polygon fill="black" stroke="black" points="87.18,-154.28 97.7,-153.04 88.7,-147.45 87.18,-154.28"/>
<text text-anchor="middle" x="77.88" y="-150.45" font-family="Times New Roman,serif" font-size="14.00">0</text>
</g>
<!-- q0 -->
<g id="node3" class="node">
<title>q0</title>
<ellipse fill="none" stroke="black" cx="126.25" cy="-51" rx="20.13" ry="20.13"/>
<ellipse fill="none" stroke="black" cx="126.25" cy="-51" rx="24.13" ry="24.13"/>
<text text-anchor="middle" x="126.25" y="-45.58" font-family="Times New Roman,serif" font-size="14.00">q0</text>
</g>
<!-- q1&#45;&gt;q0 -->
<g id="edge5" class="edge">
<title>q1&#45;&gt;q0</title>
<path fill="none" stroke="black" d="M49.14,-96.98C62.57,-88.87 80.52,-78.02 95.62,-68.9"/>
<polygon fill="black" stroke="black" points="97.01,-72.15 103.76,-63.98 93.39,-66.16 97.01,-72.15"/>
<text text-anchor="middle" x="77.88" y="-82.45" font-family="Times New Roman,serif" font-size="14.00">1</text>
</g>
<!-- q2&#45;&gt;q1 -->
<g id="edge6" class="edge">
<title>q2&#45;&gt;q1</title>
<path fill="none" stroke="black" d="M107.94,-142.68C100.1,-137.08 90.52,-130.81 81.25,-126.25 76,-123.66 70.27,-121.33 64.59,-119.26"/>
<polygon fill="black" stroke="black" points="65.9,-116.01 55.31,-116.13 63.66,-122.65 65.9,-116.01"/>
<text text-anchor="middle" x="77.88" y="-128.45" font-family="Times New Roman,serif" font-size="14.00">0</text>
</g>
<!-- q2&#45;&gt;q2 -->
<g id="edge7" class="edge">
<title>q2&#45;&gt;q2</title>
<path fill="none" stroke="black" d="M117.61,-173.41C116,-183.09 118.88,-192 126.25,-192 130.51,-192 133.27,-189.02 134.53,-184.64"/>
<polygon fill="black" stroke="black" points="138.02,-185.03 134.84,-174.92 131.02,-184.81 138.02,-185.03"/>
<text text-anchor="middle" x="126.25" y="-194.45" font-family="Times New Roman,serif" font-size="14.00">1</text>
</g>
<!-- q0&#45;&gt;q1 -->
<g id="edge3" class="edge">
<title>q0&#45;&gt;q1</title>
<path fill="none" stroke="black" d="M102.01,-47.5C93.01,-47.16 82.87,-48.09 74.5,-52.25 61.58,-58.67 51.17,-70.69 43.6,-82.03"/>
<polygon fill="black" stroke="black" points="40.74,-80.01 38.49,-90.36 46.7,-83.67 40.74,-80.01"/>
<text text-anchor="middle" x="77.88" y="-55.45" font-family="Times New Roman,serif" font-size="14.00">1</text>
</g>
<!-- q0&#45;&gt;q0 -->
<g id="edge2" class="edge">
<title>q0&#45;&gt;q0</title>
<path fill="none" stroke="black" d="M117.36,-73.54C116.39,-83.99 119.35,-93.13 126.25,-93.13 130.45,-93.13 133.2,-89.73 134.48,-84.72"/>
<polygon fill="black" stroke="black" points="137.95,-85.24 135.05,-75.05 130.96,-84.82 137.95,-85.24"/>
<text text-anchor="middle" x="126.25" y="-95.58" font-family="Times New Roman,serif" font-size="14.00">0</text>
</g>
<!-- start -->
<g id="node4" class="node">
<title>start</title>
<text text-anchor="middle" x="28.25" y="-8.7" font-family="Times New Roman,serif" font-size="24.00">start</text>
</g>
<!-- start&#45;&gt;q0 -->
<g id="edge1" class="edge">
<title>start&#45;&gt;q0</title>
<path fill="none" stroke="black" d="M56.47,-24.53C64.52,-26.68 73.3,-29.23 81.25,-32 85.26,-33.4 89.41,-34.99 93.5,-36.65"/>
<polygon fill="black" stroke="black" points="92.04,-39.83 102.62,-40.5 94.77,-33.38 92.04,-39.83"/>
</g>
</g>
</svg>
