<?xml version="1.0" encoding="UTF-8" standalone="no"?>
<!DOCTYPE svg PUBLIC "-//W3C//DTD SVG 1.1//EN"
 "http://www.w3.org/Graphics/SVG/1.1/DTD/svg11.dtd">
<!-- Generated by graphviz version 10.0.1 (20240210.2158)
 -->
<!-- Pages: 1 -->
<svg width="247pt" height="240pt"
 viewBox="0.00 0.00 246.50 239.88" xmlns="http://www.w3.org/2000/svg" xmlns:xlink="http://www.w3.org/1999/xlink">
<g id="graph0" class="graph" transform="scale(1 1) rotate(0) translate(4 235.88)">
<polygon fill="white" stroke="none" points="-4,4 -4,-235.88 242.5,-235.88 242.5,4 -4,4"/>
<!-- q2 -->
<g id="node1" class="node">
<title>q2</title>
<ellipse fill="none" stroke="black" cx="24.13" cy="-124" rx="20.13" ry="20.13"/>
<ellipse fill="none" stroke="black" cx="24.13" cy="-124" rx="24.13" ry="24.13"/>
<text text-anchor="middle" x="24.13" y="-118.58" font-family="Times New Roman,serif" font-size="14.00">q2</text>
</g>
<!-- q1 -->
<g id="node2" class="node">
<title>q1</title>
<ellipse fill="none" stroke="black" cx="119.25" cy="-178" rx="20.13" ry="20.13"/>
<text text-anchor="middle" x="119.25" y="-172.57" font-family="Times New Roman,serif" font-size="14.00">q1</text>
</g>
<!-- q2&#45;&gt;q1 -->
<g id="edge6" class="edge">
<title>q2&#45;&gt;q1</title>
<path fill="none" stroke="black" d="M45.33,-135.72C58.89,-143.58 76.9,-154.02 91.63,-162.56"/>
<polygon fill="black" stroke="black" points="89.49,-165.37 99.9,-167.36 93,-159.31 89.49,-165.37"/>
<text text-anchor="middle" x="69.63" y="-153.45" font-family="Times New Roman,serif" font-size="14.00">0</text>
</g>
<!-- q0 -->
<g id="node3" class="node">
<title>q0</title>
<ellipse fill="none" stroke="black" cx="214.38" cy="-98" rx="20.13" ry="20.13"/>
<ellipse fill="none" stroke="black" cx="214.38" cy="-98" rx="24.13" ry="24.13"/>
<text text-anchor="middle" x="214.38" y="-92.58" font-family="Times New Roman,serif" font-size="14.00">q0</text>
</g>
<!-- q2&#45;&gt;q0 -->
<g id="edge7" class="edge">
<title>q2&#45;&gt;q0</title>
<path fill="none" stroke="black" d="M48.21,-120.81C80.95,-116.29 141.12,-107.98 179.09,-102.74"/>
<polygon fill="black" stroke="black" points="179.18,-106.26 188.61,-101.42 178.22,-99.32 179.18,-106.26"/>
<text text-anchor="middle" x="119.25" y="-116.45" font-family="Times New Roman,serif" font-size="14.00">1</text>
</g>
<!-- q1&#45;&gt;q1 -->
<g id="edge4" class="edge">
<title>q1&#45;&gt;q1</title>
<path fill="none" stroke="black" d="M110.39,-196.44C108.74,-206.69 111.69,-216.13 119.25,-216.13 123.86,-216.13 126.76,-212.62 127.94,-207.56"/>
<polygon fill="black" stroke="black" points="131.43,-208 128.09,-197.95 124.44,-207.9 131.43,-208"/>
<text text-anchor="middle" x="119.25" y="-218.58" font-family="Times New Roman,serif" font-size="14.00">0</text>
</g>
<!-- q1&#45;&gt;q0 -->
<g id="edge5" class="edge">
<title>q1&#45;&gt;q0</title>
<path fill="none" stroke="black" d="M136.1,-166.56C146.6,-158.79 160.54,-148.14 172.25,-138 177.79,-133.21 183.53,-127.87 188.91,-122.7"/>
<polygon fill="black" stroke="black" points="191.2,-125.35 195.9,-115.86 186.31,-120.35 191.2,-125.35"/>
<text text-anchor="middle" x="168.88" y="-144.45" font-family="Times New Roman,serif" font-size="14.00">1</text>
</g>
<!-- q0&#45;&gt;q2 -->
<g id="edge2" class="edge">
<title>q0&#45;&gt;q2</title>
<path fill="none" stroke="black" d="M190.88,-91.17C166.03,-84.69 125.03,-77.19 91,-86.25 77.84,-89.75 64.56,-96.58 53.42,-103.48"/>
<polygon fill="black" stroke="black" points="51.56,-100.51 45.11,-108.91 55.39,-106.37 51.56,-100.51"/>
<text text-anchor="middle" x="119.25" y="-88.45" font-family="Times New Roman,serif" font-size="14.00">0</text>
</g>
<!-- q0&#45;&gt;q0 -->
<g id="edge3" class="edge">
<title>q0&#45;&gt;q0</title>
<path fill="none" stroke="black" d="M205.98,-120.97C205.18,-131.24 207.98,-140.13 214.38,-140.13 218.18,-140.13 220.71,-136.99 221.97,-132.3"/>
<polygon fill="black" stroke="black" points="225.45,-132.7 222.67,-122.48 218.47,-132.2 225.45,-132.7"/>
<text text-anchor="middle" x="214.38" y="-142.58" font-family="Times New Roman,serif" font-size="14.00">1</text>
</g>
<!-- start -->
<g id="node4" class="node">
<title>start</title>
<text text-anchor="middle" x="119.25" y="-8.7" font-family="Times New Roman,serif" font-size="24.00">start</text>
</g>
<!-- start&#45;&gt;q0 -->
<g id="edge1" class="edge">
<title>start&#45;&gt;q0</title>
<path fill="none" stroke="black" d="M144.79,-35.95C153.63,-42.66 163.56,-50.47 172.25,-58 177.79,-62.79 183.53,-68.13 188.91,-73.3"/>
<polygon fill="black" stroke="black" points="186.31,-75.65 195.9,-80.14 191.2,-70.65 186.31,-75.65"/>
</g>
</g>
</svg>
