<?xml version="1.0" encoding="UTF-8" standalone="no"?>
<!DOCTYPE svg PUBLIC "-//W3C//DTD SVG 1.1//EN"
 "http://www.w3.org/Graphics/SVG/1.1/DTD/svg11.dtd">
<!-- Generated by graphviz version 10.0.1 (20240210.2158)
 -->
<!-- Pages: 1 -->
<svg width="316pt" height="90pt"
 viewBox="0.00 0.00 315.76 90.00" xmlns="http://www.w3.org/2000/svg" xmlns:xlink="http://www.w3.org/1999/xlink">
<g id="graph0" class="graph" transform="scale(1 1) rotate(0) translate(4 86)">
<polygon fill="white" stroke="none" points="-4,4 -4,-86 311.76,-86 311.76,4 -4,4"/>
<!-- q0 -->
<g id="node1" class="node">
<title>q0</title>
<ellipse fill="none" stroke="black" cx="113.63" cy="-24.13" rx="20.13" ry="20.13"/>
<text text-anchor="middle" x="113.63" y="-18.7" font-family="Times New Roman,serif" font-size="14.00">q0</text>
</g>
<!-- q0&#45;&gt;q0 -->
<g id="edge3" class="edge">
<title>q0&#45;&gt;q0</title>
<path fill="none" stroke="black" d="M106.64,-43.35C105.56,-53.29 107.89,-62.25 113.63,-62.25 116.94,-62.25 119.12,-59.26 120.16,-54.81"/>
<polygon fill="black" stroke="black" points="123.65,-54.99 120.55,-44.86 116.66,-54.72 123.65,-54.99"/>
<text text-anchor="middle" x="113.63" y="-64.7" font-family="Times New Roman,serif" font-size="14.00">1</text>
</g>
<!-- q1 -->
<g id="node2" class="node">
<title>q1</title>
<ellipse fill="none" stroke="black" cx="196.63" cy="-24.13" rx="20.13" ry="20.13"/>
<text text-anchor="middle" x="196.63" y="-18.7" font-family="Times New Roman,serif" font-size="14.00">q1</text>
</g>
<!-- q0&#45;&gt;q1 -->
<g id="edge2" class="edge">
<title>q0&#45;&gt;q1</title>
<path fill="none" stroke="black" d="M134.23,-24.13C143.39,-24.13 154.5,-24.13 164.75,-24.13"/>
<polygon fill="black" stroke="black" points="164.69,-27.63 174.69,-24.13 164.69,-20.63 164.69,-27.63"/>
<text text-anchor="middle" x="155.13" y="-26.58" font-family="Times New Roman,serif" font-size="14.00">0</text>
</g>
<!-- q1&#45;&gt;q0 -->
<g id="edge5" class="edge">
<title>q1&#45;&gt;q0</title>
<path fill="none" stroke="black" d="M179.33,-13.24C173.09,-9.68 165.73,-6.18 158.5,-4.38 152.22,-2.81 145.72,-4 139.71,-6.43"/>
<polygon fill="black" stroke="black" points="138.12,-3.31 130.91,-11.08 141.39,-9.5 138.12,-3.31"/>
<text text-anchor="middle" x="155.13" y="-7.58" font-family="Times New Roman,serif" font-size="14.00">1</text>
</g>
<!-- q2 -->
<g id="node3" class="node">
<title>q2</title>
<ellipse fill="none" stroke="black" cx="283.63" cy="-24.13" rx="20.13" ry="20.13"/>
<ellipse fill="none" stroke="black" cx="283.63" cy="-24.13" rx="24.13" ry="24.13"/>
<text text-anchor="middle" x="283.63" y="-18.7" font-family="Times New Roman,serif" font-size="14.00">q2</text>
</g>
<!-- q1&#45;&gt;q2 -->
<g id="edge4" class="edge">
<title>q1&#45;&gt;q2</title>
<path fill="none" stroke="black" d="M216.92,-24.13C226.03,-24.13 237.19,-24.13 247.71,-24.13"/>
<polygon fill="black" stroke="black" points="247.67,-27.63 257.66,-24.13 247.66,-20.63 247.67,-27.63"/>
<text text-anchor="middle" x="238.13" y="-26.58" font-family="Times New Roman,serif" font-size="14.00">0</text>
</g>
<!-- q2&#45;&gt;q1 -->
<g id="edge6" class="edge">
<title>q2&#45;&gt;q1</title>
<path fill="none" stroke="black" d="M263.5,-10.1C254.91,-5.41 244.53,-1.94 234.75,-4.38 231.14,-5.28 227.5,-6.6 223.97,-8.15"/>
<polygon fill="black" stroke="black" points="222.61,-4.91 215.28,-12.56 225.78,-11.16 222.61,-4.91"/>
<text text-anchor="middle" x="238.13" y="-7.58" font-family="Times New Roman,serif" font-size="14.00">0</text>
</g>
<!-- q2&#45;&gt;q2 -->
<g id="edge7" class="edge">
<title>q2&#45;&gt;q2</title>
<path fill="none" stroke="black" d="M275.23,-47.09C274.43,-57.37 277.23,-66.25 283.63,-66.25 287.43,-66.25 289.96,-63.12 291.22,-58.42"/>
<polygon fill="black" stroke="black" points="294.7,-58.83 291.92,-48.6 287.72,-58.33 294.7,-58.83"/>
<text text-anchor="middle" x="283.63" y="-68.7" font-family="Times New Roman,serif" font-size="14.00">1</text>
</g>
<!-- start -->
<g id="node4" class="node">
<title>start</title>
<text text-anchor="middle" x="28.25" y="-14.83" font-family="Times New Roman,serif" font-size="24.00">start</text>
</g>
<!-- start&#45;&gt;q0 -->
<g id="edge1" class="edge">
<title>start&#45;&gt;q0</title>
<path fill="none" stroke="black" d="M56.09,-24.13C64.31,-24.13 73.41,-24.13 81.87,-24.13"/>
<polygon fill="black" stroke="black" points="81.72,-27.63 91.72,-24.13 81.72,-20.63 81.72,-27.63"/>
</g>
</g>
</svg>
