<?xml version="1.0" encoding="UTF-8" standalone="no"?>
<!DOCTYPE svg PUBLIC "-//W3C//DTD SVG 1.1//EN"
 "http://www.w3.org/Graphics/SVG/1.1/DTD/svg11.dtd">
<!-- Generated by graphviz version 10.0.1 (20240210.2158)
 -->
<!-- Pages: 1 -->
<svg width="233pt" height="90pt"
 viewBox="0.00 0.00 232.75 90.00" xmlns="http://www.w3.org/2000/svg" xmlns:xlink="http://www.w3.org/1999/xlink">
<g id="graph0" class="graph" transform="scale(1 1) rotate(0) translate(4 86)">
<polygon fill="white" stroke="none" points="-4,4 -4,-86 228.75,-86 228.75,4 -4,4"/>
<!-- q0 -->
<g id="node1" class="node">
<title>q0</title>
<ellipse fill="none" stroke="black" cx="113.63" cy="-24.13" rx="20.13" ry="20.13"/>
<text text-anchor="middle" x="113.63" y="-18.7" font-family="Times New Roman,serif" font-size="14.00">q0</text>
</g>
<!-- q0&#45;&gt;q0 -->
<g id="edge3" class="edge">
<title>q0&#45;&gt;q0</title>
<path fill="none" stroke="black" d="M106.64,-43.35C105.56,-53.29 107.89,-62.25 113.63,-62.25 116.94,-62.25 119.12,-59.26 120.16,-54.81"/>
<polygon fill="black" stroke="black" points="123.65,-54.99 120.55,-44.86 116.66,-54.72 123.65,-54.99"/>
<text text-anchor="middle" x="113.63" y="-64.7" font-family="Times New Roman,serif" font-size="14.00">1</text>
</g>
<!-- q1 -->
<g id="node2" class="node">
<title>q1</title>
<ellipse fill="none" stroke="black" cx="200.63" cy="-24.13" rx="20.13" ry="20.13"/>
<ellipse fill="none" stroke="black" cx="200.63" cy="-24.13" rx="24.13" ry="24.13"/>
<text text-anchor="middle" x="200.63" y="-18.7" font-family="Times New Roman,serif" font-size="14.00">q1</text>
</g>
<!-- q0&#45;&gt;q1 -->
<g id="edge2" class="edge">
<title>q0&#45;&gt;q1</title>
<path fill="none" stroke="black" d="M133.91,-24.13C143.03,-24.13 154.19,-24.13 164.71,-24.13"/>
<polygon fill="black" stroke="black" points="164.66,-27.63 174.66,-24.13 164.66,-20.63 164.66,-27.63"/>
<text text-anchor="middle" x="155.13" y="-26.58" font-family="Times New Roman,serif" font-size="14.00">0</text>
</g>
<!-- q1&#45;&gt;q0 -->
<g id="edge5" class="edge">
<title>q1&#45;&gt;q0</title>
<path fill="none" stroke="black" d="M180.5,-10.1C171.91,-5.41 161.52,-1.94 151.75,-4.38 148.14,-5.28 144.49,-6.6 140.97,-8.15"/>
<polygon fill="black" stroke="black" points="139.61,-4.91 132.27,-12.56 142.78,-11.16 139.61,-4.91"/>
<text text-anchor="middle" x="155.13" y="-7.58" font-family="Times New Roman,serif" font-size="14.00">1</text>
</g>
<!-- q1&#45;&gt;q1 -->
<g id="edge4" class="edge">
<title>q1&#45;&gt;q1</title>
<path fill="none" stroke="black" d="M192.23,-47.09C191.43,-57.37 194.23,-66.25 200.63,-66.25 204.43,-66.25 206.96,-63.12 208.22,-58.42"/>
<polygon fill="black" stroke="black" points="211.7,-58.83 208.92,-48.6 204.72,-58.33 211.7,-58.83"/>
<text text-anchor="middle" x="200.63" y="-68.7" font-family="Times New Roman,serif" font-size="14.00">0</text>
</g>
<!-- start -->
<g id="node3" class="node">
<title>start</title>
<text text-anchor="middle" x="28.25" y="-14.83" font-family="Times New Roman,serif" font-size="24.00">start</text>
</g>
<!-- start&#45;&gt;q0 -->
<g id="edge1" class="edge">
<title>start&#45;&gt;q0</title>
<path fill="none" stroke="black" d="M56.09,-24.13C64.31,-24.13 73.41,-24.13 81.87,-24.13"/>
<polygon fill="black" stroke="black" points="81.72,-27.63 91.72,-24.13 81.72,-20.63 81.72,-27.63"/>
</g>
</g>
</svg>
