<?xml version="1.0" encoding="UTF-8" standalone="no"?>
<!DOCTYPE svg PUBLIC "-//W3C//DTD SVG 1.1//EN"
 "http://www.w3.org/Graphics/SVG/1.1/DTD/svg11.dtd">
<!-- Generated by graphviz version 10.0.1 (20240210.2158)
 -->
<!-- Pages: 1 -->
<svg width="142pt" height="180pt"
 viewBox="0.00 0.00 141.75 179.75" xmlns="http://www.w3.org/2000/svg" xmlns:xlink="http://www.w3.org/1999/xlink">
<g id="graph0" class="graph" transform="scale(1 1) rotate(0) translate(4 175.75)">
<polygon fill="white" stroke="none" points="-4,4 -4,-175.75 137.75,-175.75 137.75,4 -4,4"/>
<!-- q0 -->
<g id="node1" class="node">
<title>q0</title>
<ellipse fill="none" stroke="black" cx="113.63" cy="-20.13" rx="20.13" ry="20.13"/>
<text text-anchor="middle" x="113.63" y="-14.7" font-family="Times New Roman,serif" font-size="14.00">q0</text>
</g>
<!-- q0&#45;&gt;q0 -->
<g id="edge2" class="edge">
<title>q0&#45;&gt;q0</title>
<path fill="none" stroke="black" d="M110.09,-40.13C109.66,-49.76 110.83,-58.25 113.63,-58.25 115.2,-58.25 116.26,-55.56 116.8,-51.5"/>
<polygon fill="black" stroke="black" points="120.3,-51.75 117.11,-41.65 113.3,-51.53 120.3,-51.75"/>
<text text-anchor="middle" x="113.63" y="-60.7" font-family="Times New Roman,serif" font-size="14.00">0</text>
</g>
<!-- q0&#45;&gt;q0 -->
<g id="edge3" class="edge">
<title>q0&#45;&gt;q0</title>
<path fill="none" stroke="black" d="M107.67,-39.68C104.78,-57.34 106.76,-76.25 113.63,-76.25 119.04,-76.25 121.42,-64.48 120.76,-50.84"/>
<polygon fill="black" stroke="black" points="124.27,-50.76 119.74,-41.19 117.31,-51.5 124.27,-50.76"/>
<text text-anchor="middle" x="113.63" y="-78.7" font-family="Times New Roman,serif" font-size="14.00">1</text>
</g>
<!-- q1 -->
<g id="node2" class="node">
<title>q1</title>
<ellipse fill="none" stroke="black" cx="28.25" cy="-80.13" rx="20.13" ry="20.13"/>
<ellipse fill="none" stroke="black" cx="28.25" cy="-80.13" rx="24.13" ry="24.13"/>
<text text-anchor="middle" x="28.25" y="-74.7" font-family="Times New Roman,serif" font-size="14.00">q1</text>
</g>
<!-- q1&#45;&gt;q1 -->
<g id="edge4" class="edge">
<title>q1&#45;&gt;q1</title>
<path fill="none" stroke="black" d="M23.91,-103.94C23.61,-113.85 25.05,-122.25 28.25,-122.25 30.1,-122.25 31.36,-119.45 32.04,-115.16"/>
<polygon fill="black" stroke="black" points="35.52,-115.62 32.52,-105.46 28.53,-115.27 35.52,-115.62"/>
<text text-anchor="middle" x="28.25" y="-124.7" font-family="Times New Roman,serif" font-size="14.00">0</text>
</g>
<!-- q1&#45;&gt;q1 -->
<g id="edge5" class="edge">
<title>q1&#45;&gt;q1</title>
<path fill="none" stroke="black" d="M20.67,-103.27C17.73,-121.52 20.26,-140.25 28.25,-140.25 34.55,-140.25 37.46,-128.59 36.96,-114.7"/>
<polygon fill="black" stroke="black" points="40.45,-114.38 35.98,-104.77 33.48,-115.07 40.45,-114.38"/>
<text text-anchor="middle" x="28.25" y="-142.7" font-family="Times New Roman,serif" font-size="14.00">1</text>
</g>
<!-- start -->
<g id="node3" class="node">
<title>start</title>
<text text-anchor="middle" x="28.25" y="-10.83" font-family="Times New Roman,serif" font-size="24.00">start</text>
</g>
<!-- start&#45;&gt;q0 -->
<g id="edge1" class="edge">
<title>start&#45;&gt;q0</title>
<path fill="none" stroke="black" d="M56.09,-20.13C64.31,-20.13 73.41,-20.13 81.87,-20.13"/>
<polygon fill="black" stroke="black" points="81.72,-23.63 91.72,-20.13 81.72,-16.63 81.72,-23.63"/>
</g>
</g>
</svg>
