<?xml version="1.0" encoding="UTF-8" standalone="no"?>
<!DOCTYPE svg PUBLIC "-//W3C//DTD SVG 1.1//EN"
 "http://www.w3.org/Graphics/SVG/1.1/DTD/svg11.dtd">
<!-- Generated by graphviz version 10.0.1 (20240210.2158)
 -->
<!-- Pages: 1 -->
<svg width="322pt" height="255pt"
 viewBox="0.00 0.00 321.51 255.48" xmlns="http://www.w3.org/2000/svg" xmlns:xlink="http://www.w3.org/1999/xlink">
<g id="graph0" class="graph" transform="scale(1 1) rotate(0) translate(4 251.48)">
<polygon fill="white" stroke="none" points="-4,4 -4,-251.48 317.51,-251.48 317.51,4 -4,4"/>
<!-- q3 -->
<g id="node1" class="node">
<title>q3</title>
<ellipse fill="none" stroke="black" cx="20.13" cy="-32.73" rx="20.13" ry="20.13"/>
<text text-anchor="middle" x="20.13" y="-27.3" font-family="Times New Roman,serif" font-size="14.00">q3</text>
</g>
<!-- q2 -->
<g id="node2" class="node">
<title>q2</title>
<ellipse fill="none" stroke="black" cx="111.25" cy="-123.73" rx="20.13" ry="20.13"/>
<text text-anchor="middle" x="111.25" y="-118.3" font-family="Times New Roman,serif" font-size="14.00">q2</text>
</g>
<!-- q3&#45;&gt;q2 -->
<g id="edge12" class="edge">
<title>q3&#45;&gt;q2</title>
<path fill="none" stroke="black" d="M29.42,-50.84C35.93,-63.64 45.94,-80.62 58.25,-92.73 65.28,-99.64 74.15,-105.66 82.56,-110.5"/>
<polygon fill="black" stroke="black" points="80.63,-113.44 91.1,-115.09 83.95,-107.27 80.63,-113.44"/>
<text text-anchor="middle" x="61.63" y="-100.18" font-family="Times New Roman,serif" font-size="14.00">1</text>
</g>
<!-- q1 -->
<g id="node3" class="node">
<title>q1</title>
<ellipse fill="none" stroke="black" cx="289.38" cy="-103.73" rx="20.13" ry="20.13"/>
<ellipse fill="none" stroke="black" cx="289.38" cy="-103.73" rx="24.13" ry="24.13"/>
<text text-anchor="middle" x="289.38" y="-98.3" font-family="Times New Roman,serif" font-size="14.00">q1</text>
</g>
<!-- q3&#45;&gt;q1 -->
<g id="edge11" class="edge">
<title>q3&#45;&gt;q1</title>
<path fill="none" stroke="black" d="M40.14,-28.44C77.06,-21.07 160.26,-9.21 222.5,-35.73 241.29,-43.73 257.35,-59.98 268.92,-74.58"/>
<polygon fill="black" stroke="black" points="265.81,-76.27 274.61,-82.17 271.41,-72.07 265.81,-76.27"/>
<text text-anchor="middle" x="160.88" y="-24.18" font-family="Times New Roman,serif" font-size="14.00">0</text>
</g>
<!-- q3&#45;&gt;q1 -->
<g id="edge13" class="edge">
<title>q3&#45;&gt;q1</title>
<path fill="none" stroke="black" d="M38.64,-24.71C65.49,-13.37 118.56,5.2 164.25,-1.98 204.85,-8.35 220.2,-11.8 247.25,-42.73 255.54,-52.2 263.54,-63.41 270.24,-73.63"/>
<polygon fill="black" stroke="black" points="267.1,-75.2 275.43,-81.75 273,-71.44 267.1,-75.2"/>
<text text-anchor="middle" x="160.88" y="-5.18" font-family="Times New Roman,serif" font-size="14.00">2</text>
</g>
<!-- q2&#45;&gt;q3 -->
<g id="edge9" class="edge">
<title>q2&#45;&gt;q3</title>
<path fill="none" stroke="black" d="M96.83,-109.77C87.85,-100.46 75.75,-87.95 65,-76.98 57.82,-69.65 49.93,-61.67 42.85,-54.54"/>
<polygon fill="black" stroke="black" points="45.6,-52.33 36.07,-47.71 40.64,-57.27 45.6,-52.33"/>
<text text-anchor="middle" x="61.63" y="-80.18" font-family="Times New Roman,serif" font-size="14.00">1</text>
</g>
<!-- q2&#45;&gt;q1 -->
<g id="edge8" class="edge">
<title>q2&#45;&gt;q1</title>
<path fill="none" stroke="black" d="M131.54,-126.86C153.68,-129.89 191,-133.29 222.5,-127.73 233.89,-125.72 245.9,-121.89 256.5,-117.88"/>
<polygon fill="black" stroke="black" points="257.56,-121.23 265.55,-114.26 254.96,-114.73 257.56,-121.23"/>
<text text-anchor="middle" x="202.38" y="-132.18" font-family="Times New Roman,serif" font-size="14.00">0</text>
</g>
<!-- q0 -->
<g id="node4" class="node">
<title>q0</title>
<ellipse fill="none" stroke="black" cx="202.38" cy="-64.73" rx="20.13" ry="20.13"/>
<text text-anchor="middle" x="202.38" y="-59.3" font-family="Times New Roman,serif" font-size="14.00">q0</text>
</g>
<!-- q2&#45;&gt;q0 -->
<g id="edge10" class="edge">
<title>q2&#45;&gt;q0</title>
<path fill="none" stroke="black" d="M130.93,-117.8C141.25,-114.06 154,-108.62 164.25,-101.73 170.06,-97.82 175.72,-92.93 180.81,-87.99"/>
<polygon fill="black" stroke="black" points="183.25,-90.5 187.7,-80.89 178.22,-85.63 183.25,-90.5"/>
<text text-anchor="middle" x="160.88" y="-108.18" font-family="Times New Roman,serif" font-size="14.00">2</text>
</g>
<!-- q1&#45;&gt;q2 -->
<g id="edge5" class="edge">
<title>q1&#45;&gt;q2</title>
<path fill="none" stroke="black" d="M286.53,-128.05C283.18,-154.67 273.76,-196.75 247.25,-220.73 238.86,-228.32 233.74,-225.38 222.5,-226.73 193.7,-230.17 179.95,-239.11 157.5,-220.73 137.15,-204.06 125.47,-176.17 119.09,-154.56"/>
<polygon fill="black" stroke="black" points="122.52,-153.83 116.54,-145.08 115.76,-155.65 122.52,-153.83"/>
<text text-anchor="middle" x="202.38" y="-234.18" font-family="Times New Roman,serif" font-size="14.00">0</text>
</g>
<!-- q1&#45;&gt;q2 -->
<g id="edge7" class="edge">
<title>q1&#45;&gt;q2</title>
<path fill="none" stroke="black" d="M279.47,-126.21C272.7,-140.46 262.01,-158.14 247.25,-168.73 238.06,-175.32 233.74,-173.38 222.5,-174.73 193.7,-178.17 182.82,-182.9 157.5,-168.73 147.85,-163.32 138.84,-155.29 131.44,-147.49"/>
<polygon fill="black" stroke="black" points="134.37,-145.52 125.1,-140.4 129.15,-150.19 134.37,-145.52"/>
<text text-anchor="middle" x="202.38" y="-180.18" font-family="Times New Roman,serif" font-size="14.00">2</text>
</g>
<!-- q1&#45;&gt;q0 -->
<g id="edge6" class="edge">
<title>q1&#45;&gt;q0</title>
<path fill="none" stroke="black" d="M266.87,-93.86C256.12,-88.92 242.97,-82.89 231.43,-77.6"/>
<polygon fill="black" stroke="black" points="232.92,-74.43 222.37,-73.44 230,-80.79 232.92,-74.43"/>
<text text-anchor="middle" x="243.88" y="-86.18" font-family="Times New Roman,serif" font-size="14.00">1</text>
</g>
<!-- q0&#45;&gt;q2 -->
<g id="edge4" class="edge">
<title>q0&#45;&gt;q2</title>
<path fill="none" stroke="black" d="M183.34,-72.26C175.2,-75.96 165.61,-80.75 157.5,-85.98 149.77,-90.97 141.88,-97.12 134.9,-102.99"/>
<polygon fill="black" stroke="black" points="133.02,-99.99 127.77,-109.19 137.61,-105.27 133.02,-99.99"/>
<text text-anchor="middle" x="160.88" y="-88.18" font-family="Times New Roman,serif" font-size="14.00">2</text>
</g>
<!-- q0&#45;&gt;q1 -->
<g id="edge2" class="edge">
<title>q0&#45;&gt;q1</title>
<path fill="none" stroke="black" d="M222.77,-62.39C230.63,-62.18 239.63,-62.88 247.25,-65.98 253.86,-68.66 260.06,-72.91 265.54,-77.61"/>
<polygon fill="black" stroke="black" points="262.77,-79.81 272.43,-84.16 267.6,-74.74 262.77,-79.81"/>
<text text-anchor="middle" x="243.88" y="-69.18" font-family="Times New Roman,serif" font-size="14.00">0</text>
</g>
<!-- q0&#45;&gt;q0 -->
<g id="edge3" class="edge">
<title>q0&#45;&gt;q0</title>
<path fill="none" stroke="black" d="M194.92,-83.56C193.65,-93.66 196.14,-102.85 202.38,-102.85 206.08,-102.85 208.47,-99.61 209.53,-94.86"/>
<polygon fill="black" stroke="black" points="213.02,-95.17 209.8,-85.07 206.02,-94.97 213.02,-95.17"/>
<text text-anchor="middle" x="202.38" y="-105.3" font-family="Times New Roman,serif" font-size="14.00">1</text>
</g>
<!-- start -->
<g id="node5" class="node">
<title>start</title>
<text text-anchor="middle" x="111.25" y="-53.43" font-family="Times New Roman,serif" font-size="24.00">start</text>
</g>
<!-- start&#45;&gt;q0 -->
<g id="edge1" class="edge">
<title>start&#45;&gt;q0</title>
<path fill="none" stroke="black" d="M139.48,-63.34C149.34,-63.56 160.54,-63.81 170.68,-64.04"/>
<polygon fill="black" stroke="black" points="170.36,-67.53 180.44,-64.26 170.52,-60.53 170.36,-67.53"/>
</g>
</g>
</svg>
