<?xml version="1.0" encoding="UTF-8" standalone="no"?>
<!DOCTYPE svg PUBLIC "-//W3C//DTD SVG 1.1//EN"
 "http://www.w3.org/Graphics/SVG/1.1/DTD/svg11.dtd">
<!-- Generated by graphviz version 10.0.1 (20240210.2158)
 -->
<!-- Pages: 1 -->
<svg width="349pt" height="199pt"
 viewBox="0.00 0.00 349.00 198.76" xmlns="http://www.w3.org/2000/svg" xmlns:xlink="http://www.w3.org/1999/xlink">
<g id="graph0" class="graph" transform="scale(1 1) rotate(0) translate(4 194.76)">
<polygon fill="#e5e7eb" stroke="none" points="-4,4 -4,-194.76 345,-194.76 345,4 -4,4"/>
<!-- q1 -->
<g id="node1" class="node">
<title>q1</title>
<ellipse fill="none" stroke="black" cx="27" cy="-39.01" rx="27" ry="18"/>
<text text-anchor="middle" x="27" y="-33.59" font-family="Times New Roman,serif" font-size="14.00">q1</text>
</g>
<!-- q2 -->
<g id="node2" class="node">
<title>q2</title>
<ellipse fill="none" stroke="black" cx="125" cy="-139.01" rx="27" ry="18"/>
<text text-anchor="middle" x="125" y="-133.59" font-family="Times New Roman,serif" font-size="14.00">q2</text>
</g>
<!-- q1&#45;&gt;q2 -->
<g id="edge4" class="edge">
<title>q1&#45;&gt;q2</title>
<path fill="none" stroke="black" d="M42.07,-54.26C55.86,-69.13 77.55,-92.32 96.75,-112.01 98.09,-113.39 99.48,-114.8 100.88,-116.22"/>
<polygon fill="black" stroke="black" points="98.3,-118.58 107.84,-123.18 103.25,-113.64 98.3,-118.58"/>
<text text-anchor="middle" x="75.38" y="-94.46" font-family="Times New Roman,serif" font-size="14.00">0</text>
</g>
<!-- q0 -->
<g id="node3" class="node">
<title>q0</title>
<ellipse fill="none" stroke="black" cx="316.88" cy="-39.01" rx="20.13" ry="20.13"/>
<ellipse fill="none" stroke="black" cx="316.88" cy="-39.01" rx="24.13" ry="24.13"/>
<text text-anchor="middle" x="316.88" y="-33.59" font-family="Times New Roman,serif" font-size="14.00">q0</text>
</g>
<!-- q1&#45;&gt;q0 -->
<g id="edge5" class="edge">
<title>q1&#45;&gt;q0</title>
<path fill="none" stroke="black" d="M54.31,-39.01C106.51,-39.01 223.16,-39.01 281.4,-39.01"/>
<polygon fill="black" stroke="black" points="281.06,-42.51 291.06,-39.01 281.06,-35.51 281.06,-42.51"/>
<text text-anchor="middle" x="174.62" y="-41.46" font-family="Times New Roman,serif" font-size="14.00">1</text>
</g>
<!-- q2&#45;&gt;q2 -->
<g id="edge7" class="edge">
<title>q2&#45;&gt;q2</title>
<path fill="none" stroke="black" d="M116.14,-156.42C114.49,-166.1 117.44,-175.01 125,-175.01 129.37,-175.01 132.2,-172.03 133.49,-167.65"/>
<polygon fill="black" stroke="black" points="136.98,-168.05 133.81,-157.94 129.99,-167.82 136.98,-168.05"/>
<text text-anchor="middle" x="125" y="-177.46" font-family="Times New Roman,serif" font-size="14.00">1</text>
</g>
<!-- q3 -->
<g id="node4" class="node">
<title>q3</title>
<ellipse fill="none" stroke="black" cx="223" cy="-101.01" rx="27" ry="18"/>
<text text-anchor="middle" x="223" y="-95.59" font-family="Times New Roman,serif" font-size="14.00">q3</text>
</g>
<!-- q2&#45;&gt;q3 -->
<g id="edge6" class="edge">
<title>q2&#45;&gt;q3</title>
<path fill="none" stroke="black" d="M152.31,-139.92C160.74,-139.45 169.97,-138.1 178,-135.01 185.26,-132.22 192.32,-127.81 198.57,-123.09"/>
<polygon fill="black" stroke="black" points="200.42,-126.1 205.92,-117.04 195.98,-120.69 200.42,-126.1"/>
<text text-anchor="middle" x="174.62" y="-139.46" font-family="Times New Roman,serif" font-size="14.00">0</text>
</g>
<!-- q0&#45;&gt;q1 -->
<g id="edge3" class="edge">
<title>q0&#45;&gt;q1</title>
<path fill="none" stroke="black" d="M293.83,-30.81C266.94,-21.31 219.89,-6.33 178,-1.26 136.21,3.79 89.36,-11.5 59.31,-24.11"/>
<polygon fill="black" stroke="black" points="58.19,-20.78 50.43,-27.99 61,-27.2 58.19,-20.78"/>
<text text-anchor="middle" x="174.62" y="-4.46" font-family="Times New Roman,serif" font-size="14.00">1</text>
</g>
<!-- q0&#45;&gt;q0 -->
<g id="edge2" class="edge">
<title>q0&#45;&gt;q0</title>
<path fill="none" stroke="black" d="M308.48,-61.98C307.68,-72.25 310.48,-81.14 316.88,-81.14 320.68,-81.14 323.21,-78.01 324.47,-73.31"/>
<polygon fill="black" stroke="black" points="327.95,-73.71 325.17,-63.49 320.96,-73.21 327.95,-73.71"/>
<text text-anchor="middle" x="316.88" y="-83.59" font-family="Times New Roman,serif" font-size="14.00">0</text>
</g>
<!-- q3&#45;&gt;q2 -->
<g id="edge8" class="edge">
<title>q3&#45;&gt;q2</title>
<path fill="none" stroke="black" d="M197.13,-106.88C188.78,-109.14 179.5,-111.98 171.25,-115.26 166.16,-117.29 160.89,-119.72 155.83,-122.24"/>
<polygon fill="black" stroke="black" points="154.44,-119.02 147.19,-126.74 157.67,-125.23 154.44,-119.02"/>
<text text-anchor="middle" x="174.62" y="-117.46" font-family="Times New Roman,serif" font-size="14.00">0</text>
</g>
<!-- q3&#45;&gt;q0 -->
<g id="edge9" class="edge">
<title>q3&#45;&gt;q0</title>
<path fill="none" stroke="black" d="M242.59,-88.47C255.29,-79.9 272.37,-68.38 286.84,-58.61"/>
<polygon fill="black" stroke="black" points="288.77,-61.53 295.11,-53.03 284.86,-55.72 288.77,-61.53"/>
<text text-anchor="middle" x="271.38" y="-72.46" font-family="Times New Roman,serif" font-size="14.00">1</text>
</g>
<!-- start -->
<g id="node5" class="node">
<title>start</title>
<text text-anchor="middle" x="125" y="-75.71" font-family="Times New Roman,serif" font-size="24.00">start</text>
</g>
<!-- start&#45;&gt;q3 -->
<g id="edge1" class="edge">
<title>start&#45;&gt;q3</title>
<path fill="none" stroke="black" d="M153,-89.51C163.02,-91.18 174.56,-93.11 185.29,-94.9"/>
<polygon fill="black" stroke="black" points="184.59,-98.33 195.03,-96.52 185.74,-91.42 184.59,-98.33"/>
</g>
</g>
</svg>
