<?xml version="1.0" encoding="UTF-8" standalone="no"?>
<!DOCTYPE svg PUBLIC "-//W3C//DTD SVG 1.1//EN"
 "http://www.w3.org/Graphics/SVG/1.1/DTD/svg11.dtd">
<!-- Generated by graphviz version 10.0.1 (20240210.2158)
 -->
<!-- Pages: 1 -->
<svg width="395pt" height="212pt"
 viewBox="0.00 0.00 394.51 211.63" xmlns="http://www.w3.org/2000/svg" xmlns:xlink="http://www.w3.org/1999/xlink">
<g id="graph0" class="graph" transform="scale(1 1) rotate(0) translate(4 207.63)">
<polygon fill="#e5e7eb" stroke="none" points="-4,4 -4,-207.63 390.51,-207.63 390.51,4 -4,4"/>
<!-- q0 -->
<g id="node1" class="node">
<title>q0</title>
<ellipse fill="none" stroke="black" cx="113.63" cy="-138.13" rx="20.13" ry="20.13"/>
<text text-anchor="middle" x="113.63" y="-132.7" font-family="Times New Roman,serif" font-size="14.00">q0</text>
</g>
<!-- ϕ -->
<g id="node3" class="node">
<title>ϕ</title>
<ellipse fill="none" stroke="black" cx="368.51" cy="-118.13" rx="18" ry="18"/>
<text text-anchor="middle" x="368.51" y="-112.7" font-family="Times New Roman,serif" font-size="14.00">ϕ</text>
</g>
<!-- q0&#45;&gt;ϕ -->
<g id="edge4" class="edge">
<title>q0&#45;&gt;ϕ</title>
<path fill="none" stroke="black" d="M133.35,-143.58C139.19,-145.04 145.69,-146.4 151.75,-147.13 154.73,-147.48 155.5,-147.23 158.5,-147.13 224.95,-144.9 241.86,-145.95 307.76,-137.13 318.88,-135.64 321.75,-135.33 332.51,-132.13 335.31,-131.29 338.19,-130.32 341.05,-129.29"/>
<polygon fill="black" stroke="black" points="342.23,-132.59 350.28,-125.71 339.69,-126.06 342.23,-132.59"/>
<text text-anchor="middle" x="238.13" y="-147.58" font-family="Times New Roman,serif" font-size="14.00">e</text>
</g>
<!-- q1 -->
<g id="node4" class="node">
<title>q1</title>
<ellipse fill="none" stroke="black" cx="196.63" cy="-114.13" rx="20.13" ry="20.13"/>
<text text-anchor="middle" x="196.63" y="-108.7" font-family="Times New Roman,serif" font-size="14.00">q1</text>
</g>
<!-- q0&#45;&gt;q1 -->
<g id="edge5" class="edge">
<title>q0&#45;&gt;q1</title>
<path fill="none" stroke="black" d="M133.41,-132.56C143.13,-129.68 155.2,-126.1 166.13,-122.87"/>
<polygon fill="black" stroke="black" points="166.9,-126.29 175.49,-120.09 164.91,-119.58 166.9,-126.29"/>
<text text-anchor="middle" x="155.13" y="-129.58" font-family="Times New Roman,serif" font-size="14.00">0</text>
</g>
<!-- start -->
<g id="node2" class="node">
<title>start</title>
<text text-anchor="middle" x="28.25" y="-128.83" font-family="Times New Roman,serif" font-size="24.00">start</text>
</g>
<!-- start&#45;&gt;q0 -->
<g id="edge1" class="edge">
<title>start&#45;&gt;q0</title>
<path fill="none" stroke="black" d="M56.09,-138.13C64.31,-138.13 73.41,-138.13 81.87,-138.13"/>
<polygon fill="black" stroke="black" points="81.72,-141.63 91.72,-138.13 81.72,-134.63 81.72,-141.63"/>
</g>
<!-- ϕ&#45;&gt;ϕ -->
<g id="edge2" class="edge">
<title>ϕ&#45;&gt;ϕ</title>
<path fill="none" stroke="black" d="M364.95,-136.28C364.4,-145.67 365.58,-154.13 368.51,-154.13 370.11,-154.13 371.18,-151.6 371.74,-147.77"/>
<polygon fill="black" stroke="black" points="375.24,-147.89 372.03,-137.79 368.25,-147.69 375.24,-147.89"/>
<text text-anchor="middle" x="368.51" y="-156.58" font-family="Times New Roman,serif" font-size="14.00">e</text>
</g>
<!-- ϕ&#45;&gt;ϕ -->
<g id="edge3" class="edge">
<title>ϕ&#45;&gt;ϕ</title>
<path fill="none" stroke="black" d="M362.69,-135.55C359.38,-152.92 361.32,-172.13 368.51,-172.13 374.18,-172.13 376.58,-160.17 375.72,-146.59"/>
<polygon fill="black" stroke="black" points="379.24,-146.53 374.51,-137.05 372.29,-147.41 379.24,-146.53"/>
<text text-anchor="middle" x="368.51" y="-174.58" font-family="Times New Roman,serif" font-size="14.00">0</text>
</g>
<!-- q1&#45;&gt;ϕ -->
<g id="edge6" class="edge">
<title>q1&#45;&gt;ϕ</title>
<path fill="none" stroke="black" d="M217.12,-114.59C246.97,-115.29 304.21,-116.64 338.82,-117.45"/>
<polygon fill="black" stroke="black" points="338.44,-120.94 348.52,-117.68 338.61,-113.94 338.44,-120.94"/>
<text text-anchor="middle" x="283.63" y="-119.58" font-family="Times New Roman,serif" font-size="14.00">e</text>
</g>
<!-- q2 -->
<g id="node5" class="node">
<title>q2</title>
<ellipse fill="none" stroke="black" cx="283.63" cy="-24.13" rx="20.13" ry="20.13"/>
<ellipse fill="none" stroke="black" cx="283.63" cy="-24.13" rx="24.13" ry="24.13"/>
<text text-anchor="middle" x="283.63" y="-18.7" font-family="Times New Roman,serif" font-size="14.00">q2</text>
</g>
<!-- q1&#45;&gt;q2 -->
<g id="edge7" class="edge">
<title>q1&#45;&gt;q2</title>
<path fill="none" stroke="black" d="M211.29,-99.67C224.07,-86.13 243.46,-65.6 258.8,-49.36"/>
<polygon fill="black" stroke="black" points="261.03,-52.09 265.35,-42.42 255.94,-47.29 261.03,-52.09"/>
<text text-anchor="middle" x="238.13" y="-77.58" font-family="Times New Roman,serif" font-size="14.00">0</text>
</g>
<!-- q2&#45;&gt;ϕ -->
<g id="edge9" class="edge">
<title>q2&#45;&gt;ϕ</title>
<path fill="none" stroke="black" d="M300.22,-41.81C313.83,-57.24 333.63,-79.7 348.23,-96.27"/>
<polygon fill="black" stroke="black" points="345.5,-98.46 354.74,-103.64 350.75,-93.83 345.5,-98.46"/>
<text text-anchor="middle" x="329.13" y="-79.58" font-family="Times New Roman,serif" font-size="14.00">0</text>
</g>
<!-- q2&#45;&gt;q2 -->
<g id="edge8" class="edge">
<title>q2&#45;&gt;q2</title>
<path fill="none" stroke="black" d="M275.23,-47.09C274.43,-57.37 277.23,-66.25 283.63,-66.25 287.43,-66.25 289.96,-63.12 291.22,-58.42"/>
<polygon fill="black" stroke="black" points="294.7,-58.83 291.92,-48.6 287.72,-58.33 294.7,-58.83"/>
<text text-anchor="middle" x="283.63" y="-68.7" font-family="Times New Roman,serif" font-size="14.00">e</text>
</g>
</g>
</svg>
