<?xml version="1.0" encoding="UTF-8" standalone="no"?>
<!DOCTYPE svg PUBLIC "-//W3C//DTD SVG 1.1//EN"
 "http://www.w3.org/Graphics/SVG/1.1/DTD/svg11.dtd">
<!-- Generated by graphviz version 10.0.1 (20240210.2158)
 -->
<!-- Pages: 1 -->
<svg width="312pt" height="118pt"
 viewBox="0.00 0.00 311.50 117.63" xmlns="http://www.w3.org/2000/svg" xmlns:xlink="http://www.w3.org/1999/xlink">
<g id="graph0" class="graph" transform="scale(1 1) rotate(0) translate(4 113.63)">
<polygon fill="#e5e7eb" stroke="none" points="-4,4 -4,-113.63 307.5,-113.63 307.5,4 -4,4"/>
<!-- q0 -->
<g id="node1" class="node">
<title>q0</title>
<ellipse fill="none" stroke="black" cx="113.63" cy="-24.13" rx="20.13" ry="20.13"/>
<text text-anchor="middle" x="113.63" y="-18.7" font-family="Times New Roman,serif" font-size="14.00">q0</text>
</g>
<!-- q0&#45;&gt;q0 -->
<g id="edge3" class="edge">
<title>q0&#45;&gt;q0</title>
<path fill="none" stroke="black" d="M106.64,-43.35C105.56,-53.29 107.89,-62.25 113.63,-62.25 116.94,-62.25 119.12,-59.26 120.16,-54.81"/>
<polygon fill="black" stroke="black" points="123.65,-54.99 120.55,-44.86 116.66,-54.72 123.65,-54.99"/>
<text text-anchor="middle" x="113.63" y="-64.7" font-family="Times New Roman,serif" font-size="14.00">1</text>
</g>
<!-- q1 -->
<g id="node3" class="node">
<title>q1</title>
<ellipse fill="none" stroke="black" cx="200.63" cy="-24.13" rx="20.13" ry="20.13"/>
<ellipse fill="none" stroke="black" cx="200.63" cy="-24.13" rx="24.13" ry="24.13"/>
<text text-anchor="middle" x="200.63" y="-18.7" font-family="Times New Roman,serif" font-size="14.00">q1</text>
</g>
<!-- q0&#45;&gt;q1 -->
<g id="edge2" class="edge">
<title>q0&#45;&gt;q1</title>
<path fill="none" stroke="black" d="M133.91,-24.13C143.03,-24.13 154.19,-24.13 164.71,-24.13"/>
<polygon fill="black" stroke="black" points="164.66,-27.63 174.66,-24.13 164.66,-20.63 164.66,-27.63"/>
<text text-anchor="middle" x="155.13" y="-26.58" font-family="Times New Roman,serif" font-size="14.00">0</text>
</g>
<!-- start -->
<g id="node2" class="node">
<title>start</title>
<text text-anchor="middle" x="28.25" y="-14.83" font-family="Times New Roman,serif" font-size="24.00">start</text>
</g>
<!-- start&#45;&gt;q0 -->
<g id="edge1" class="edge">
<title>start&#45;&gt;q0</title>
<path fill="none" stroke="black" d="M56.09,-24.13C64.31,-24.13 73.41,-24.13 81.87,-24.13"/>
<polygon fill="black" stroke="black" points="81.72,-27.63 91.72,-24.13 81.72,-20.63 81.72,-27.63"/>
</g>
<!-- ϕ -->
<g id="node4" class="node">
<title>ϕ</title>
<ellipse fill="none" stroke="black" cx="285.5" cy="-24.13" rx="18" ry="18"/>
<text text-anchor="middle" x="285.5" y="-18.7" font-family="Times New Roman,serif" font-size="14.00">ϕ</text>
</g>
<!-- q1&#45;&gt;ϕ -->
<g id="edge6" class="edge">
<title>q1&#45;&gt;ϕ</title>
<path fill="none" stroke="black" d="M225.16,-24.13C234.68,-24.13 245.77,-24.13 255.77,-24.13"/>
<polygon fill="black" stroke="black" points="255.73,-27.63 265.73,-24.13 255.73,-20.63 255.73,-27.63"/>
<text text-anchor="middle" x="246.13" y="-26.58" font-family="Times New Roman,serif" font-size="14.00">0</text>
</g>
<!-- q1&#45;&gt;ϕ -->
<g id="edge7" class="edge">
<title>q1&#45;&gt;ϕ</title>
<path fill="none" stroke="black" d="M220.79,-9.98C229.38,-5.28 239.76,-1.82 249.5,-4.38 253.15,-5.33 256.81,-6.77 260.33,-8.43"/>
<polygon fill="black" stroke="black" points="258.47,-11.4 268.92,-13.15 261.84,-5.27 258.47,-11.4"/>
<text text-anchor="middle" x="246.13" y="-7.58" font-family="Times New Roman,serif" font-size="14.00">1</text>
</g>
<!-- ϕ&#45;&gt;ϕ -->
<g id="edge4" class="edge">
<title>ϕ&#45;&gt;ϕ</title>
<path fill="none" stroke="black" d="M281.94,-42.28C281.4,-51.67 282.58,-60.13 285.5,-60.13 287.1,-60.13 288.18,-57.6 288.74,-53.77"/>
<polygon fill="black" stroke="black" points="292.24,-53.89 289.02,-43.79 285.24,-53.69 292.24,-53.89"/>
<text text-anchor="middle" x="285.5" y="-62.58" font-family="Times New Roman,serif" font-size="14.00">0</text>
</g>
<!-- ϕ&#45;&gt;ϕ -->
<g id="edge5" class="edge">
<title>ϕ&#45;&gt;ϕ</title>
<path fill="none" stroke="black" d="M279.69,-41.55C276.38,-58.92 278.31,-78.13 285.5,-78.13 291.18,-78.13 293.58,-66.17 292.72,-52.59"/>
<polygon fill="black" stroke="black" points="296.24,-52.53 291.51,-43.05 289.29,-53.41 296.24,-52.53"/>
<text text-anchor="middle" x="285.5" y="-80.58" font-family="Times New Roman,serif" font-size="14.00">1</text>
</g>
</g>
</svg>
