<?xml version="1.0" encoding="UTF-8" standalone="no"?>
<!DOCTYPE svg PUBLIC "-//W3C//DTD SVG 1.1//EN"
 "http://www.w3.org/Graphics/SVG/1.1/DTD/svg11.dtd">
<!-- Generated by graphviz version 10.0.1 (20240210.2158)
 -->
<!-- Pages: 1 -->
<svg width="338pt" height="127pt"
 viewBox="0.00 0.00 337.72 127.11" xmlns="http://www.w3.org/2000/svg" xmlns:xlink="http://www.w3.org/1999/xlink">
<g id="graph0" class="graph" transform="scale(1 1) rotate(0) translate(4 123.11)">
<polygon fill="#e5e7eb" stroke="none" points="-4,4 -4,-123.11 333.72,-123.11 333.72,4 -4,4"/>
<!-- q0q1 -->
<g id="node1" class="node">
<title>q0q1</title>
<ellipse fill="none" stroke="black" cx="127.11" cy="-33.61" rx="29.61" ry="29.61"/>
<ellipse fill="none" stroke="black" cx="127.11" cy="-33.61" rx="33.61" ry="33.61"/>
<text text-anchor="middle" x="127.11" y="-28.18" font-family="Times New Roman,serif" font-size="14.00">q0q1</text>
</g>
<!-- q1 -->
<g id="node3" class="node">
<title>q1</title>
<ellipse fill="none" stroke="black" cx="227.59" cy="-33.61" rx="20.13" ry="20.13"/>
<ellipse fill="none" stroke="black" cx="227.59" cy="-33.61" rx="24.13" ry="24.13"/>
<text text-anchor="middle" x="227.59" y="-28.18" font-family="Times New Roman,serif" font-size="14.00">q1</text>
</g>
<!-- q0q1&#45;&gt;q1 -->
<g id="edge2" class="edge">
<title>q0q1&#45;&gt;q1</title>
<path fill="none" stroke="black" d="M161.17,-33.61C171.05,-33.61 181.91,-33.61 191.89,-33.61"/>
<polygon fill="black" stroke="black" points="191.58,-37.11 201.58,-33.61 191.58,-30.11 191.58,-37.11"/>
<text text-anchor="middle" x="182.09" y="-36.06" font-family="Times New Roman,serif" font-size="14.00">e</text>
</g>
<!-- q0q1&#45;&gt;q1 -->
<g id="edge3" class="edge">
<title>q0q1&#45;&gt;q1</title>
<path fill="none" stroke="black" d="M156.64,-17.14C165.73,-13.69 175.91,-11.68 185.46,-13.86 188.91,-14.64 192.4,-15.75 195.81,-17.05"/>
<polygon fill="black" stroke="black" points="194.38,-20.24 204.94,-21.06 197.2,-13.83 194.38,-20.24"/>
<text text-anchor="middle" x="182.09" y="-17.06" font-family="Times New Roman,serif" font-size="14.00">1</text>
</g>
<!-- start -->
<g id="node2" class="node">
<title>start</title>
<text text-anchor="middle" x="28.25" y="-24.31" font-family="Times New Roman,serif" font-size="24.00">start</text>
</g>
<!-- start&#45;&gt;q0q1 -->
<g id="edge1" class="edge">
<title>start&#45;&gt;q0q1</title>
<path fill="none" stroke="black" d="M56.49,-33.61C64.42,-33.61 73.31,-33.61 82,-33.61"/>
<polygon fill="black" stroke="black" points="81.72,-37.11 91.72,-33.61 81.72,-30.11 81.72,-37.11"/>
</g>
<!-- q1&#45;&gt;q1 -->
<g id="edge7" class="edge">
<title>q1&#45;&gt;q1</title>
<path fill="none" stroke="black" d="M219.26,-56.57C218.47,-66.85 221.24,-75.73 227.59,-75.73 231.36,-75.73 233.87,-72.6 235.12,-67.9"/>
<polygon fill="black" stroke="black" points="238.6,-68.3 235.81,-58.08 231.62,-67.81 238.6,-68.3"/>
<text text-anchor="middle" x="227.59" y="-78.18" font-family="Times New Roman,serif" font-size="14.00">1</text>
</g>
<!-- ϕ -->
<g id="node4" class="node">
<title>ϕ</title>
<ellipse fill="none" stroke="black" cx="311.72" cy="-33.61" rx="18" ry="18"/>
<text text-anchor="middle" x="311.72" y="-28.18" font-family="Times New Roman,serif" font-size="14.00">ϕ</text>
</g>
<!-- q1&#45;&gt;ϕ -->
<g id="edge6" class="edge">
<title>q1&#45;&gt;ϕ</title>
<path fill="none" stroke="black" d="M251.9,-33.61C261.28,-33.61 272.18,-33.61 282.03,-33.61"/>
<polygon fill="black" stroke="black" points="281.84,-37.11 291.84,-33.61 281.84,-30.11 281.84,-37.11"/>
<text text-anchor="middle" x="272.72" y="-36.06" font-family="Times New Roman,serif" font-size="14.00">e</text>
</g>
<!-- ϕ&#45;&gt;ϕ -->
<g id="edge4" class="edge">
<title>ϕ&#45;&gt;ϕ</title>
<path fill="none" stroke="black" d="M308.19,-51.76C307.65,-61.15 308.82,-69.61 311.72,-69.61 313.3,-69.61 314.37,-67.08 314.92,-63.25"/>
<polygon fill="black" stroke="black" points="318.42,-63.37 315.2,-53.27 311.42,-63.17 318.42,-63.37"/>
<text text-anchor="middle" x="311.72" y="-72.06" font-family="Times New Roman,serif" font-size="14.00">e</text>
</g>
<!-- ϕ&#45;&gt;ϕ -->
<g id="edge5" class="edge">
<title>ϕ&#45;&gt;ϕ</title>
<path fill="none" stroke="black" d="M305.96,-51.03C302.67,-68.4 304.59,-87.61 311.72,-87.61 317.34,-87.61 319.72,-75.65 318.86,-62.07"/>
<polygon fill="black" stroke="black" points="322.38,-62.02 317.66,-52.53 315.43,-62.89 322.38,-62.02"/>
<text text-anchor="middle" x="311.72" y="-90.06" font-family="Times New Roman,serif" font-size="14.00">1</text>
</g>
</g>
</svg>
