<?xml version="1.0" encoding="UTF-8" standalone="no"?>
<!DOCTYPE svg PUBLIC "-//W3C//DTD SVG 1.1//EN"
 "http://www.w3.org/Graphics/SVG/1.1/DTD/svg11.dtd">
<!-- Generated by graphviz version 10.0.1 (20240210.2158)
 -->
<!-- Pages: 1 -->
<svg width="221pt" height="115pt"
 viewBox="0.00 0.00 220.50 114.57" xmlns="http://www.w3.org/2000/svg" xmlns:xlink="http://www.w3.org/1999/xlink">
<g id="graph0" class="graph" transform="scale(1 1) rotate(0) translate(4 110.57)">
<polygon fill="#e5e7eb" stroke="none" points="-4,4 -4,-110.57 216.5,-110.57 216.5,4 -4,4"/>
<!-- ϕ -->
<g id="node1" class="node">
<title>ϕ</title>
<ellipse fill="none" stroke="black" cx="194.5" cy="-21.07" rx="18" ry="18"/>
<text text-anchor="middle" x="194.5" y="-15.64" font-family="Times New Roman,serif" font-size="14.00">ϕ</text>
</g>
<!-- ϕ&#45;&gt;ϕ -->
<g id="edge3" class="edge">
<title>ϕ&#45;&gt;ϕ</title>
<path fill="none" stroke="black" d="M190.94,-39.22C190.39,-48.6 191.58,-57.07 194.5,-57.07 196.1,-57.07 197.18,-54.54 197.74,-50.71"/>
<polygon fill="black" stroke="black" points="201.24,-50.83 198.02,-40.73 194.24,-50.63 201.24,-50.83"/>
<text text-anchor="middle" x="194.5" y="-59.52" font-family="Times New Roman,serif" font-size="14.00">1</text>
</g>
<!-- ϕ&#45;&gt;ϕ -->
<g id="edge4" class="edge">
<title>ϕ&#45;&gt;ϕ</title>
<path fill="none" stroke="black" d="M188.69,-38.49C185.37,-55.86 187.31,-75.07 194.5,-75.07 200.18,-75.07 202.58,-63.11 201.71,-49.53"/>
<polygon fill="black" stroke="black" points="205.23,-49.47 200.51,-39.99 198.29,-50.35 205.23,-49.47"/>
<text text-anchor="middle" x="194.5" y="-77.52" font-family="Times New Roman,serif" font-size="14.00">0</text>
</g>
<!-- q0 -->
<g id="node2" class="node">
<title>q0</title>
<ellipse fill="none" stroke="black" cx="113.63" cy="-21.07" rx="20.13" ry="20.13"/>
<text text-anchor="middle" x="113.63" y="-15.64" font-family="Times New Roman,serif" font-size="14.00">q0</text>
</g>
<!-- q0&#45;&gt;ϕ -->
<g id="edge1" class="edge">
<title>q0&#45;&gt;ϕ</title>
<path fill="none" stroke="black" d="M134.12,-21.07C143.37,-21.07 154.6,-21.07 164.8,-21.07"/>
<polygon fill="black" stroke="black" points="164.6,-24.57 174.6,-21.07 164.6,-17.57 164.6,-24.57"/>
<text text-anchor="middle" x="155.13" y="-23.52" font-family="Times New Roman,serif" font-size="14.00">1</text>
</g>
<!-- q0&#45;&gt;ϕ -->
<g id="edge2" class="edge">
<title>q0&#45;&gt;ϕ</title>
<path fill="none" stroke="black" d="M129.6,-8.63C137.88,-3.24 148.48,1.32 158.5,-1.32 162.15,-2.27 165.81,-3.71 169.32,-5.37"/>
<polygon fill="black" stroke="black" points="167.46,-8.34 177.91,-10.09 170.83,-2.21 167.46,-8.34"/>
<text text-anchor="middle" x="155.13" y="-4.52" font-family="Times New Roman,serif" font-size="14.00">0</text>
</g>
<!-- start -->
<g id="node3" class="node">
<title>start</title>
<text text-anchor="middle" x="28.25" y="-11.77" font-family="Times New Roman,serif" font-size="24.00">start</text>
</g>
<!-- start&#45;&gt;q0 -->
<g id="edge5" class="edge">
<title>start&#45;&gt;q0</title>
<path fill="none" stroke="black" d="M56.09,-21.07C64.31,-21.07 73.41,-21.07 81.87,-21.07"/>
<polygon fill="black" stroke="black" points="81.72,-24.57 91.72,-21.07 81.72,-17.57 81.72,-24.57"/>
</g>
</g>
</svg>
