<?xml version="1.0" encoding="UTF-8" standalone="no"?>
<!DOCTYPE svg PUBLIC "-//W3C//DTD SVG 1.1//EN"
 "http://www.w3.org/Graphics/SVG/1.1/DTD/svg11.dtd">
<!-- Generated by graphviz version 10.0.1 (20240210.2158)
 -->
<!-- Pages: 1 -->
<svg width="239pt" height="200pt"
 viewBox="0.00 0.00 238.50 200.25" xmlns="http://www.w3.org/2000/svg" xmlns:xlink="http://www.w3.org/1999/xlink">
<g id="graph0" class="graph" transform="scale(1 1) rotate(0) translate(4 196.25)">
<polygon fill="#e5e7eb" stroke="none" points="-4,4 -4,-196.25 234.5,-196.25 234.5,4 -4,4"/>
<!-- q0 -->
<g id="node1" class="node">
<title>q0</title>
<ellipse fill="none" stroke="black" cx="123.38" cy="-20.13" rx="20.13" ry="20.13"/>
<text text-anchor="middle" x="123.38" y="-14.7" font-family="Times New Roman,serif" font-size="14.00">q0</text>
</g>
<!-- q0&#45;&gt;q0 -->
<g id="edge2" class="edge">
<title>q0&#45;&gt;q0</title>
<path fill="none" stroke="black" d="M115.2,-38.96C113.81,-49.05 116.53,-58.25 123.38,-58.25 127.44,-58.25 130.05,-55.01 131.21,-50.26"/>
<polygon fill="black" stroke="black" points="134.7,-50.57 131.51,-40.47 127.71,-50.36 134.7,-50.57"/>
<text text-anchor="middle" x="123.38" y="-60.7" font-family="Times New Roman,serif" font-size="14.00">0</text>
</g>
<!-- q1 -->
<g id="node2" class="node">
<title>q1</title>
<ellipse fill="none" stroke="black" cx="28.25" cy="-143.13" rx="20.13" ry="20.13"/>
<text text-anchor="middle" x="28.25" y="-137.7" font-family="Times New Roman,serif" font-size="14.00">q1</text>
</g>
<!-- q3 -->
<g id="node3" class="node">
<title>q3</title>
<ellipse fill="none" stroke="black" cx="123.38" cy="-168.13" rx="20.13" ry="20.13"/>
<ellipse fill="none" stroke="black" cx="123.38" cy="-168.13" rx="24.13" ry="24.13"/>
<text text-anchor="middle" x="123.38" y="-162.7" font-family="Times New Roman,serif" font-size="14.00">q3</text>
</g>
<!-- q1&#45;&gt;q3 -->
<g id="edge3" class="edge">
<title>q1&#45;&gt;q3</title>
<path fill="none" stroke="black" d="M47.04,-150.72C55.28,-154 65.26,-157.64 74.5,-160.13 78.86,-161.3 83.5,-162.33 88.1,-163.23"/>
<polygon fill="black" stroke="black" points="87.35,-166.65 97.8,-164.93 88.56,-159.76 87.35,-166.65"/>
<text text-anchor="middle" x="77.88" y="-163.58" font-family="Times New Roman,serif" font-size="14.00">1</text>
</g>
<!-- q3&#45;&gt;q1 -->
<g id="edge5" class="edge">
<title>q3&#45;&gt;q1</title>
<path fill="none" stroke="black" d="M104.35,-152.58C97.56,-147.68 89.49,-142.9 81.25,-140.38 74.41,-138.28 66.83,-137.75 59.63,-138.01"/>
<polygon fill="black" stroke="black" points="59.57,-134.5 49.92,-138.87 60.19,-141.47 59.57,-134.5"/>
<text text-anchor="middle" x="77.88" y="-142.58" font-family="Times New Roman,serif" font-size="14.00">1</text>
</g>
<!-- q2 -->
<g id="node4" class="node">
<title>q2</title>
<ellipse fill="none" stroke="black" cx="210.38" cy="-126.13" rx="20.13" ry="20.13"/>
<text text-anchor="middle" x="210.38" y="-120.7" font-family="Times New Roman,serif" font-size="14.00">q2</text>
</g>
<!-- q3&#45;&gt;q2 -->
<g id="edge6" class="edge">
<title>q3&#45;&gt;q2</title>
<path fill="none" stroke="black" d="M145.39,-157.74C156.3,-152.35 169.79,-145.69 181.56,-139.87"/>
<polygon fill="black" stroke="black" points="182.99,-143.07 190.4,-135.5 179.89,-136.79 182.99,-143.07"/>
<text text-anchor="middle" x="168.88" y="-149.58" font-family="Times New Roman,serif" font-size="14.00">0</text>
</g>
<!-- q2&#45;&gt;q1 -->
<g id="edge4" class="edge">
<title>q2&#45;&gt;q1</title>
<path fill="none" stroke="black" d="M190.15,-122.36C168.06,-118.63 130.81,-114.17 99.25,-119.38 85.29,-121.68 70.37,-126.4 57.91,-131.04"/>
<polygon fill="black" stroke="black" points="56.71,-127.75 48.66,-134.64 59.25,-134.27 56.71,-127.75"/>
<text text-anchor="middle" x="123.38" y="-121.58" font-family="Times New Roman,serif" font-size="14.00">0</text>
</g>
<!-- start -->
<g id="node5" class="node">
<title>start</title>
<text text-anchor="middle" x="28.25" y="-10.83" font-family="Times New Roman,serif" font-size="24.00">start</text>
</g>
<!-- start&#45;&gt;q0 -->
<g id="edge1" class="edge">
<title>start&#45;&gt;q0</title>
<path fill="none" stroke="black" d="M56.19,-20.13C67.27,-20.13 80.17,-20.13 91.62,-20.13"/>
<polygon fill="black" stroke="black" points="91.38,-23.63 101.38,-20.13 91.38,-16.63 91.38,-23.63"/>
</g>
</g>
</svg>
