<?xml version="1.0" encoding="UTF-8" standalone="no"?>
<!DOCTYPE svg PUBLIC "-//W3C//DTD SVG 1.1//EN"
 "http://www.w3.org/Graphics/SVG/1.1/DTD/svg11.dtd">
<!-- Generated by graphviz version 10.0.1 (20240210.2158)
 -->
<!-- Pages: 1 -->
<svg width="142pt" height="112pt"
 viewBox="0.00 0.00 141.75 112.25" xmlns="http://www.w3.org/2000/svg" xmlns:xlink="http://www.w3.org/1999/xlink">
<g id="graph0" class="graph" transform="scale(1 1) rotate(0) translate(4 108.25)">
<polygon fill="#e5e7eb" stroke="none" points="-4,4 -4,-108.25 137.75,-108.25 137.75,4 -4,4"/>
<!-- q0 -->
<g id="node1" class="node">
<title>q0</title>
<ellipse fill="none" stroke="black" cx="113.63" cy="-20.13" rx="20.13" ry="20.13"/>
<text text-anchor="middle" x="113.63" y="-14.7" font-family="Times New Roman,serif" font-size="14.00">q0</text>
</g>
<!-- q0&#45;&gt;q0 -->
<g id="edge2" class="edge">
<title>q0&#45;&gt;q0</title>
<path fill="none" stroke="black" d="M106.64,-39.35C105.56,-49.29 107.89,-58.25 113.63,-58.25 116.94,-58.25 119.12,-55.26 120.16,-50.81"/>
<polygon fill="black" stroke="black" points="123.65,-50.99 120.55,-40.86 116.66,-50.72 123.65,-50.99"/>
<text text-anchor="middle" x="113.63" y="-60.7" font-family="Times New Roman,serif" font-size="14.00">0</text>
</g>
<!-- q2 -->
<g id="node2" class="node">
<title>q2</title>
<ellipse fill="none" stroke="black" cx="28.25" cy="-80.13" rx="20.13" ry="20.13"/>
<ellipse fill="none" stroke="black" cx="28.25" cy="-80.13" rx="24.13" ry="24.13"/>
<text text-anchor="middle" x="28.25" y="-74.7" font-family="Times New Roman,serif" font-size="14.00">q2</text>
</g>
<!-- start -->
<g id="node3" class="node">
<title>start</title>
<text text-anchor="middle" x="28.25" y="-10.83" font-family="Times New Roman,serif" font-size="24.00">start</text>
</g>
<!-- start&#45;&gt;q0 -->
<g id="edge1" class="edge">
<title>start&#45;&gt;q0</title>
<path fill="none" stroke="black" d="M56.09,-20.13C64.31,-20.13 73.41,-20.13 81.87,-20.13"/>
<polygon fill="black" stroke="black" points="81.72,-23.63 91.72,-20.13 81.72,-16.63 81.72,-23.63"/>
</g>
</g>
</svg>
