<?xml version="1.0" encoding="UTF-8" standalone="no"?>
<!DOCTYPE svg PUBLIC "-//W3C//DTD SVG 1.1//EN"
 "http://www.w3.org/Graphics/SVG/1.1/DTD/svg11.dtd">
<!-- Generated by graphviz version 10.0.1 (20240210.2158)
 -->
<!-- Pages: 1 -->
<svg width="314pt" height="56pt"
 viewBox="0.00 0.00 314.26 56.25" xmlns="http://www.w3.org/2000/svg" xmlns:xlink="http://www.w3.org/1999/xlink">
<g id="graph0" class="graph" transform="scale(1 1) rotate(0) translate(4 52.25)">
<polygon fill="#e5e7eb" stroke="none" points="-4,4 -4,-52.25 310.26,-52.25 310.26,4 -4,4"/>
<!-- q0 -->
<g id="node1" class="node">
<title>q0</title>
<ellipse fill="none" stroke="black" cx="113.63" cy="-24.13" rx="20.13" ry="20.13"/>
<text text-anchor="middle" x="113.63" y="-18.7" font-family="Times New Roman,serif" font-size="14.00">q0</text>
</g>
<!-- q1 -->
<g id="node2" class="node">
<title>q1</title>
<ellipse fill="none" stroke="black" cx="195.88" cy="-24.13" rx="20.13" ry="20.13"/>
<text text-anchor="middle" x="195.88" y="-18.7" font-family="Times New Roman,serif" font-size="14.00">q1</text>
</g>
<!-- q0&#45;&gt;q1 -->
<g id="edge2" class="edge">
<title>q0&#45;&gt;q1</title>
<path fill="none" stroke="black" d="M134.05,-24.13C143.06,-24.13 153.97,-24.13 164.06,-24.13"/>
<polygon fill="black" stroke="black" points="163.84,-27.63 173.84,-24.13 163.84,-20.63 163.84,-27.63"/>
<text text-anchor="middle" x="154.75" y="-26.58" font-family="Times New Roman,serif" font-size="14.00">ε</text>
</g>
<!-- q2 -->
<g id="node3" class="node">
<title>q2</title>
<ellipse fill="none" stroke="black" cx="282.13" cy="-24.13" rx="20.13" ry="20.13"/>
<ellipse fill="none" stroke="black" cx="282.13" cy="-24.13" rx="24.13" ry="24.13"/>
<text text-anchor="middle" x="282.13" y="-18.7" font-family="Times New Roman,serif" font-size="14.00">q2</text>
</g>
<!-- q1&#45;&gt;q2 -->
<g id="edge3" class="edge">
<title>q1&#45;&gt;q2</title>
<path fill="none" stroke="black" d="M216.42,-24.13C225.39,-24.13 236.3,-24.13 246.59,-24.13"/>
<polygon fill="black" stroke="black" points="246.29,-27.63 256.29,-24.13 246.29,-20.63 246.29,-27.63"/>
<text text-anchor="middle" x="237" y="-26.58" font-family="Times New Roman,serif" font-size="14.00">ε</text>
</g>
<!-- start -->
<g id="node4" class="node">
<title>start</title>
<text text-anchor="middle" x="28.25" y="-14.83" font-family="Times New Roman,serif" font-size="24.00">start</text>
</g>
<!-- start&#45;&gt;q0 -->
<g id="edge1" class="edge">
<title>start&#45;&gt;q0</title>
<path fill="none" stroke="black" d="M56.09,-24.13C64.31,-24.13 73.41,-24.13 81.87,-24.13"/>
<polygon fill="black" stroke="black" points="81.72,-27.63 91.72,-24.13 81.72,-20.63 81.72,-27.63"/>
</g>
</g>
</svg>
