<?xml version="1.0" encoding="UTF-8" standalone="no"?>
<!DOCTYPE svg PUBLIC "-//W3C//DTD SVG 1.1//EN"
 "http://www.w3.org/Graphics/SVG/1.1/DTD/svg11.dtd">
<!-- Generated by graphviz version 10.0.1 (20240210.2158)
 -->
<!-- Pages: 1 -->
<svg width="352pt" height="152pt"
 viewBox="0.00 0.00 351.50 152.00" xmlns="http://www.w3.org/2000/svg" xmlns:xlink="http://www.w3.org/1999/xlink">
<g id="graph0" class="graph" transform="scale(1 1) rotate(0) translate(4 148)">
<polygon fill="white" stroke="none" points="-4,4 -4,-148 347.5,-148 347.5,4 -4,4"/>
<!-- Q0 -->
<g id="node1" class="node">
<title>Q0</title>
<ellipse fill="none" stroke="black" cx="27" cy="-98" rx="27" ry="18"/>
<text text-anchor="middle" x="27" y="-92.58" font-family="Times New Roman,serif" font-size="14.00">Q0</text>
</g>
<!-- Q1 -->
<g id="node2" class="node">
<title>Q1</title>
<ellipse fill="none" stroke="black" cx="123" cy="-126" rx="27" ry="18"/>
<text text-anchor="middle" x="123" y="-120.58" font-family="Times New Roman,serif" font-size="14.00">Q1</text>
</g>
<!-- Q0&#45;&gt;Q1 -->
<g id="edge1" class="edge">
<title>Q0&#45;&gt;Q1</title>
<path fill="none" stroke="black" d="M52.21,-105.21C62.84,-108.38 75.53,-112.16 87.16,-115.62"/>
<polygon fill="black" stroke="black" points="85.84,-118.88 96.42,-118.38 87.84,-112.17 85.84,-118.88"/>
<text text-anchor="middle" x="75" y="-114.45" font-family="Times New Roman,serif" font-size="14.00">ε</text>
</g>
<!-- Q3 -->
<g id="node4" class="node">
<title>Q3</title>
<ellipse fill="none" stroke="black" cx="123" cy="-72" rx="27" ry="18"/>
<text text-anchor="middle" x="123" y="-66.58" font-family="Times New Roman,serif" font-size="14.00">Q3</text>
</g>
<!-- Q0&#45;&gt;Q3 -->
<g id="edge2" class="edge">
<title>Q0&#45;&gt;Q3</title>
<path fill="none" stroke="black" d="M51.67,-90.31C58.23,-88.25 65.37,-86.1 72,-84.25 76.55,-82.98 81.36,-81.72 86.12,-80.5"/>
<polygon fill="black" stroke="black" points="86.67,-83.97 95.53,-78.17 84.98,-77.18 86.67,-83.97"/>
<text text-anchor="middle" x="75" y="-86.45" font-family="Times New Roman,serif" font-size="14.00">ε</text>
</g>
<!-- Q2 -->
<g id="node3" class="node">
<title>Q2</title>
<ellipse fill="none" stroke="black" cx="219" cy="-126" rx="27" ry="18"/>
<text text-anchor="middle" x="219" y="-120.58" font-family="Times New Roman,serif" font-size="14.00">Q2</text>
</g>
<!-- Q1&#45;&gt;Q2 -->
<g id="edge3" class="edge">
<title>Q1&#45;&gt;Q2</title>
<path fill="none" stroke="black" d="M150.43,-126C159.72,-126 170.35,-126 180.38,-126"/>
<polygon fill="black" stroke="black" points="180.25,-129.5 190.25,-126 180.25,-122.5 180.25,-129.5"/>
<text text-anchor="middle" x="171" y="-128.45" font-family="Times New Roman,serif" font-size="14.00">a</text>
</g>
<!-- Q4 -->
<g id="node5" class="node">
<title>Q4</title>
<ellipse fill="none" stroke="black" cx="219" cy="-72" rx="27" ry="18"/>
<text text-anchor="middle" x="219" y="-66.58" font-family="Times New Roman,serif" font-size="14.00">Q4</text>
</g>
<!-- Q3&#45;&gt;Q4 -->
<g id="edge4" class="edge">
<title>Q3&#45;&gt;Q4</title>
<path fill="none" stroke="black" d="M150.43,-72C159.72,-72 170.35,-72 180.38,-72"/>
<polygon fill="black" stroke="black" points="180.25,-75.5 190.25,-72 180.25,-68.5 180.25,-75.5"/>
<text text-anchor="middle" x="171" y="-74.45" font-family="Times New Roman,serif" font-size="14.00">ε</text>
</g>
<!-- Q6 -->
<g id="node7" class="node">
<title>Q6</title>
<ellipse fill="none" stroke="black" cx="219" cy="-18" rx="27" ry="18"/>
<text text-anchor="middle" x="219" y="-12.57" font-family="Times New Roman,serif" font-size="14.00">Q6</text>
</g>
<!-- Q3&#45;&gt;Q6 -->
<g id="edge5" class="edge">
<title>Q3&#45;&gt;Q6</title>
<path fill="none" stroke="black" d="M143.93,-60.55C156.68,-53.22 173.47,-43.58 187.83,-35.33"/>
<polygon fill="black" stroke="black" points="189.53,-38.39 196.46,-30.38 186.04,-32.32 189.53,-38.39"/>
<text text-anchor="middle" x="171" y="-49.45" font-family="Times New Roman,serif" font-size="14.00">ε</text>
</g>
<!-- Q5 -->
<g id="node6" class="node">
<title>Q5</title>
<ellipse fill="none" stroke="black" cx="316.5" cy="-72" rx="27" ry="18"/>
<text text-anchor="middle" x="316.5" y="-66.58" font-family="Times New Roman,serif" font-size="14.00">Q5</text>
</g>
<!-- Q4&#45;&gt;Q5 -->
<g id="edge6" class="edge">
<title>Q4&#45;&gt;Q5</title>
<path fill="none" stroke="black" d="M246.35,-72C256.06,-72 267.25,-72 277.77,-72"/>
<polygon fill="black" stroke="black" points="277.72,-75.5 287.72,-72 277.72,-68.5 277.72,-75.5"/>
<text text-anchor="middle" x="267.75" y="-74.45" font-family="Times New Roman,serif" font-size="14.00">b</text>
</g>
<!-- Q7 -->
<g id="node8" class="node">
<title>Q7</title>
<ellipse fill="none" stroke="black" cx="316.5" cy="-18" rx="27" ry="18"/>
<text text-anchor="middle" x="316.5" y="-12.57" font-family="Times New Roman,serif" font-size="14.00">Q7</text>
</g>
<!-- Q6&#45;&gt;Q7 -->
<g id="edge7" class="edge">
<title>Q6&#45;&gt;Q7</title>
<path fill="none" stroke="black" d="M246.35,-18C256.06,-18 267.25,-18 277.77,-18"/>
<polygon fill="black" stroke="black" points="277.72,-21.5 287.72,-18 277.72,-14.5 277.72,-21.5"/>
<text text-anchor="middle" x="267.75" y="-20.45" font-family="Times New Roman,serif" font-size="14.00">c</text>
</g>
</g>
</svg>
