<?xml version="1.0" encoding="UTF-8" standalone="no"?>
<!DOCTYPE svg PUBLIC "-//W3C//DTD SVG 1.1//EN"
 "http://www.w3.org/Graphics/SVG/1.1/DTD/svg11.dtd">
<!-- Generated by graphviz version 10.0.1 (20240210.2158)
 -->
<!-- Pages: 1 -->
<svg width="443pt" height="188pt"
 viewBox="0.00 0.00 443.24 188.24" xmlns="http://www.w3.org/2000/svg" xmlns:xlink="http://www.w3.org/1999/xlink">
<g id="graph0" class="graph" transform="scale(1 1) rotate(0) translate(4 184.24)">
<polygon fill="#e5e7eb" stroke="none" points="-4,4 -4,-184.24 439.24,-184.24 439.24,4 -4,4"/>
<!-- Q0 -->
<g id="node1" class="node">
<title>Q0</title>
<ellipse fill="none" stroke="black" cx="120.5" cy="-118.12" rx="27" ry="18"/>
<text text-anchor="middle" x="120.5" y="-112.7" font-family="Times New Roman,serif" font-size="14.00">Q0</text>
</g>
<!-- Q1 -->
<g id="node2" class="node">
<title>Q1</title>
<ellipse fill="none" stroke="black" cx="216.5" cy="-150.12" rx="27" ry="18"/>
<text text-anchor="middle" x="216.5" y="-144.7" font-family="Times New Roman,serif" font-size="14.00">Q1</text>
</g>
<!-- Q0&#45;&gt;Q1 -->
<g id="edge2" class="edge">
<title>Q0&#45;&gt;Q1</title>
<path fill="none" stroke="black" d="M145.22,-126.2C156.13,-129.91 169.28,-134.39 181.24,-138.46"/>
<polygon fill="black" stroke="black" points="179.76,-141.65 190.35,-141.56 182.02,-135.03 179.76,-141.65"/>
<text text-anchor="middle" x="168.5" y="-137.57" font-family="Times New Roman,serif" font-size="14.00">ε</text>
</g>
<!-- Q3 -->
<g id="node4" class="node">
<title>Q3</title>
<ellipse fill="none" stroke="black" cx="216.5" cy="-92.12" rx="27" ry="18"/>
<text text-anchor="middle" x="216.5" y="-86.7" font-family="Times New Roman,serif" font-size="14.00">Q3</text>
</g>
<!-- Q0&#45;&gt;Q3 -->
<g id="edge3" class="edge">
<title>Q0&#45;&gt;Q3</title>
<path fill="none" stroke="black" d="M145.71,-111.43C156.15,-108.54 168.58,-105.1 180.03,-101.93"/>
<polygon fill="black" stroke="black" points="180.88,-105.33 189.59,-99.29 179.02,-98.58 180.88,-105.33"/>
<text text-anchor="middle" x="168.5" y="-108.57" font-family="Times New Roman,serif" font-size="14.00">ε</text>
</g>
<!-- Q2 -->
<g id="node3" class="node">
<title>Q2</title>
<ellipse fill="none" stroke="black" cx="312.5" cy="-154.12" rx="22.12" ry="22.12"/>
<ellipse fill="none" stroke="black" cx="312.5" cy="-154.12" rx="26.12" ry="26.12"/>
<text text-anchor="middle" x="312.5" y="-148.7" font-family="Times New Roman,serif" font-size="14.00">Q2</text>
</g>
<!-- Q1&#45;&gt;Q2 -->
<g id="edge4" class="edge">
<title>Q1&#45;&gt;Q2</title>
<path fill="none" stroke="black" d="M243.93,-151.25C253.48,-151.65 264.44,-152.12 274.71,-152.56"/>
<polygon fill="black" stroke="black" points="274.26,-156.04 284.4,-152.97 274.56,-149.05 274.26,-156.04"/>
<text text-anchor="middle" x="264.5" y="-155.57" font-family="Times New Roman,serif" font-size="14.00">a</text>
</g>
<!-- Q4 -->
<g id="node5" class="node">
<title>Q4</title>
<ellipse fill="none" stroke="black" cx="312.5" cy="-92.12" rx="27" ry="18"/>
<text text-anchor="middle" x="312.5" y="-86.7" font-family="Times New Roman,serif" font-size="14.00">Q4</text>
</g>
<!-- Q3&#45;&gt;Q4 -->
<g id="edge5" class="edge">
<title>Q3&#45;&gt;Q4</title>
<path fill="none" stroke="black" d="M243.93,-92.12C253.22,-92.12 263.85,-92.12 273.88,-92.12"/>
<polygon fill="black" stroke="black" points="273.75,-95.62 283.75,-92.12 273.75,-88.62 273.75,-95.62"/>
<text text-anchor="middle" x="264.5" y="-94.57" font-family="Times New Roman,serif" font-size="14.00">ε</text>
</g>
<!-- Q6 -->
<g id="node7" class="node">
<title>Q6</title>
<ellipse fill="none" stroke="black" cx="312.5" cy="-30.12" rx="27" ry="18"/>
<text text-anchor="middle" x="312.5" y="-24.7" font-family="Times New Roman,serif" font-size="14.00">Q6</text>
</g>
<!-- Q3&#45;&gt;Q6 -->
<g id="edge6" class="edge">
<title>Q3&#45;&gt;Q6</title>
<path fill="none" stroke="black" d="M236.52,-79.58C249.9,-70.75 268.03,-58.79 283.12,-48.84"/>
<polygon fill="black" stroke="black" points="284.82,-51.91 291.24,-43.48 280.97,-46.07 284.82,-51.91"/>
<text text-anchor="middle" x="264.5" y="-65.57" font-family="Times New Roman,serif" font-size="14.00">ε</text>
</g>
<!-- Q5 -->
<g id="node6" class="node">
<title>Q5</title>
<ellipse fill="none" stroke="black" cx="409.12" cy="-96.12" rx="22.12" ry="22.12"/>
<ellipse fill="none" stroke="black" cx="409.12" cy="-96.12" rx="26.12" ry="26.12"/>
<text text-anchor="middle" x="409.12" y="-90.7" font-family="Times New Roman,serif" font-size="14.00">Q5</text>
</g>
<!-- Q4&#45;&gt;Q5 -->
<g id="edge7" class="edge">
<title>Q4&#45;&gt;Q5</title>
<path fill="none" stroke="black" d="M339.86,-93.24C349.55,-93.65 360.72,-94.12 371.17,-94.56"/>
<polygon fill="black" stroke="black" points="370.91,-98.05 381.05,-94.98 371.2,-91.06 370.91,-98.05"/>
<text text-anchor="middle" x="361.25" y="-97.57" font-family="Times New Roman,serif" font-size="14.00">b</text>
</g>
<!-- Q7 -->
<g id="node8" class="node">
<title>Q7</title>
<ellipse fill="none" stroke="black" cx="409.12" cy="-26.12" rx="22.12" ry="22.12"/>
<ellipse fill="none" stroke="black" cx="409.12" cy="-26.12" rx="26.12" ry="26.12"/>
<text text-anchor="middle" x="409.12" y="-20.7" font-family="Times New Roman,serif" font-size="14.00">Q7</text>
</g>
<!-- Q6&#45;&gt;Q7 -->
<g id="edge8" class="edge">
<title>Q6&#45;&gt;Q7</title>
<path fill="none" stroke="black" d="M339.86,-29.01C349.55,-28.6 360.72,-28.13 371.17,-27.68"/>
<polygon fill="black" stroke="black" points="371.2,-31.19 381.05,-27.27 370.91,-24.19 371.2,-31.19"/>
<text text-anchor="middle" x="361.25" y="-31.57" font-family="Times New Roman,serif" font-size="14.00">c</text>
</g>
<!-- start -->
<g id="node9" class="node">
<title>start</title>
<text text-anchor="middle" x="28.25" y="-108.82" font-family="Times New Roman,serif" font-size="24.00">start</text>
</g>
<!-- start&#45;&gt;Q0 -->
<g id="edge1" class="edge">
<title>start&#45;&gt;Q0</title>
<path fill="none" stroke="black" d="M56.33,-118.12C64.32,-118.12 73.22,-118.12 81.76,-118.12"/>
<polygon fill="black" stroke="black" points="81.55,-121.62 91.55,-118.12 81.55,-114.62 81.55,-121.62"/>
</g>
</g>
</svg>
