<?xml version="1.0" encoding="UTF-8" standalone="no"?>
<!DOCTYPE svg PUBLIC "-//W3C//DTD SVG 1.1//EN"
 "http://www.w3.org/Graphics/SVG/1.1/DTD/svg11.dtd">
<!-- Generated by graphviz version 10.0.1 (20240210.2158)
 -->
<!-- Pages: 1 -->
<svg width="251pt" height="60pt"
 viewBox="0.00 0.00 251.24 60.24" xmlns="http://www.w3.org/2000/svg" xmlns:xlink="http://www.w3.org/1999/xlink">
<g id="graph0" class="graph" transform="scale(1 1) rotate(0) translate(4 56.24)">
<polygon fill="#e5e7eb" stroke="none" points="-4,4 -4,-56.24 247.24,-56.24 247.24,4 -4,4"/>
<!-- Q0 -->
<g id="node1" class="node">
<title>Q0</title>
<ellipse fill="none" stroke="black" cx="120.5" cy="-26.12" rx="27" ry="18"/>
<text text-anchor="middle" x="120.5" y="-20.7" font-family="Times New Roman,serif" font-size="14.00">Q0</text>
</g>
<!-- Q1 -->
<g id="node2" class="node">
<title>Q1</title>
<ellipse fill="none" stroke="black" cx="217.12" cy="-26.12" rx="22.12" ry="22.12"/>
<ellipse fill="none" stroke="black" cx="217.12" cy="-26.12" rx="26.12" ry="26.12"/>
<text text-anchor="middle" x="217.12" y="-20.7" font-family="Times New Roman,serif" font-size="14.00">Q1</text>
</g>
<!-- Q0&#45;&gt;Q1 -->
<g id="edge2" class="edge">
<title>Q0&#45;&gt;Q1</title>
<path fill="none" stroke="black" d="M147.86,-26.12C157.55,-26.12 168.72,-26.12 179.17,-26.12"/>
<polygon fill="black" stroke="black" points="179.05,-29.62 189.05,-26.12 179.05,-22.62 179.05,-29.62"/>
<text text-anchor="middle" x="169.25" y="-28.57" font-family="Times New Roman,serif" font-size="14.00">b</text>
</g>
<!-- start -->
<g id="node3" class="node">
<title>start</title>
<text text-anchor="middle" x="28.25" y="-16.82" font-family="Times New Roman,serif" font-size="24.00">start</text>
</g>
<!-- start&#45;&gt;Q0 -->
<g id="edge1" class="edge">
<title>start&#45;&gt;Q0</title>
<path fill="none" stroke="black" d="M56.33,-26.12C64.32,-26.12 73.22,-26.12 81.76,-26.12"/>
<polygon fill="black" stroke="black" points="81.55,-29.62 91.55,-26.12 81.55,-22.62 81.55,-29.62"/>
</g>
</g>
</svg>
