<?xml version="1.0" encoding="UTF-8" standalone="no"?>
<!DOCTYPE svg PUBLIC "-//W3C//DTD SVG 1.1//EN"
 "http://www.w3.org/Graphics/SVG/1.1/DTD/svg11.dtd">
<!-- Generated by graphviz version 10.0.1 (20240210.2158)
 -->
<!-- Pages: 1 -->
<svg width="737pt" height="182pt"
 viewBox="0.00 0.00 737.00 182.00" xmlns="http://www.w3.org/2000/svg" xmlns:xlink="http://www.w3.org/1999/xlink">
<g id="graph0" class="graph" transform="scale(1 1) rotate(0) translate(4 178)">
<polygon fill="white" stroke="none" points="-4,4 -4,-178 733,-178 733,4 -4,4"/>
<!-- Q0 -->
<g id="node1" class="node">
<title>Q0</title>
<ellipse fill="none" stroke="black" cx="27" cy="-128" rx="27" ry="18"/>
<text text-anchor="middle" x="27" y="-122.58" font-family="Times New Roman,serif" font-size="14.00">Q0</text>
</g>
<!-- Q1 -->
<g id="node2" class="node">
<title>Q1</title>
<ellipse fill="none" stroke="black" cx="123" cy="-156" rx="27" ry="18"/>
<text text-anchor="middle" x="123" y="-150.57" font-family="Times New Roman,serif" font-size="14.00">Q1</text>
</g>
<!-- Q0&#45;&gt;Q1 -->
<g id="edge1" class="edge">
<title>Q0&#45;&gt;Q1</title>
<path fill="none" stroke="black" d="M52.21,-135.21C62.84,-138.38 75.53,-142.16 87.16,-145.62"/>
<polygon fill="black" stroke="black" points="85.84,-148.88 96.42,-148.38 87.84,-142.17 85.84,-148.88"/>
<text text-anchor="middle" x="75" y="-144.45" font-family="Times New Roman,serif" font-size="14.00">ε</text>
</g>
<!-- Q3 -->
<g id="node4" class="node">
<title>Q3</title>
<ellipse fill="none" stroke="black" cx="123" cy="-102" rx="27" ry="18"/>
<text text-anchor="middle" x="123" y="-96.58" font-family="Times New Roman,serif" font-size="14.00">Q3</text>
</g>
<!-- Q0&#45;&gt;Q3 -->
<g id="edge2" class="edge">
<title>Q0&#45;&gt;Q3</title>
<path fill="none" stroke="black" d="M51.67,-120.31C58.23,-118.25 65.37,-116.1 72,-114.25 76.55,-112.98 81.36,-111.72 86.12,-110.5"/>
<polygon fill="black" stroke="black" points="86.67,-113.97 95.53,-108.17 84.98,-107.18 86.67,-113.97"/>
<text text-anchor="middle" x="75" y="-116.45" font-family="Times New Roman,serif" font-size="14.00">ε</text>
</g>
<!-- Q2 -->
<g id="node3" class="node">
<title>Q2</title>
<ellipse fill="none" stroke="black" cx="219" cy="-156" rx="27" ry="18"/>
<text text-anchor="middle" x="219" y="-150.57" font-family="Times New Roman,serif" font-size="14.00">Q2</text>
</g>
<!-- Q1&#45;&gt;Q2 -->
<g id="edge3" class="edge">
<title>Q1&#45;&gt;Q2</title>
<path fill="none" stroke="black" d="M150.43,-156C159.72,-156 170.35,-156 180.38,-156"/>
<polygon fill="black" stroke="black" points="180.25,-159.5 190.25,-156 180.25,-152.5 180.25,-159.5"/>
<text text-anchor="middle" x="171" y="-158.45" font-family="Times New Roman,serif" font-size="14.00">a</text>
</g>
<!-- Q4 -->
<g id="node5" class="node">
<title>Q4</title>
<ellipse fill="none" stroke="black" cx="219" cy="-102" rx="27" ry="18"/>
<text text-anchor="middle" x="219" y="-96.58" font-family="Times New Roman,serif" font-size="14.00">Q4</text>
</g>
<!-- Q3&#45;&gt;Q4 -->
<g id="edge4" class="edge">
<title>Q3&#45;&gt;Q4</title>
<path fill="none" stroke="black" d="M150.43,-102C159.72,-102 170.35,-102 180.38,-102"/>
<polygon fill="black" stroke="black" points="180.25,-105.5 190.25,-102 180.25,-98.5 180.25,-105.5"/>
<text text-anchor="middle" x="171" y="-104.45" font-family="Times New Roman,serif" font-size="14.00">ε</text>
</g>
<!-- Q6 -->
<g id="node7" class="node">
<title>Q6</title>
<ellipse fill="none" stroke="black" cx="219" cy="-48" rx="27" ry="18"/>
<text text-anchor="middle" x="219" y="-42.58" font-family="Times New Roman,serif" font-size="14.00">Q6</text>
</g>
<!-- Q3&#45;&gt;Q6 -->
<g id="edge5" class="edge">
<title>Q3&#45;&gt;Q6</title>
<path fill="none" stroke="black" d="M143.93,-90.55C156.68,-83.22 173.47,-73.58 187.83,-65.33"/>
<polygon fill="black" stroke="black" points="189.53,-68.39 196.46,-60.38 186.04,-62.32 189.53,-68.39"/>
<text text-anchor="middle" x="171" y="-78.45" font-family="Times New Roman,serif" font-size="14.00">ε</text>
</g>
<!-- Q5 -->
<g id="node6" class="node">
<title>Q5</title>
<ellipse fill="none" stroke="black" cx="316.5" cy="-102" rx="27" ry="18"/>
<text text-anchor="middle" x="316.5" y="-96.58" font-family="Times New Roman,serif" font-size="14.00">Q5</text>
</g>
<!-- Q4&#45;&gt;Q5 -->
<g id="edge6" class="edge">
<title>Q4&#45;&gt;Q5</title>
<path fill="none" stroke="black" d="M246.35,-102C256.06,-102 267.25,-102 277.77,-102"/>
<polygon fill="black" stroke="black" points="277.72,-105.5 287.72,-102 277.72,-98.5 277.72,-105.5"/>
<text text-anchor="middle" x="267.75" y="-104.45" font-family="Times New Roman,serif" font-size="14.00">b</text>
</g>
<!-- Q7 -->
<g id="node8" class="node">
<title>Q7</title>
<ellipse fill="none" stroke="black" cx="316.5" cy="-48" rx="27" ry="18"/>
<text text-anchor="middle" x="316.5" y="-42.58" font-family="Times New Roman,serif" font-size="14.00">Q7</text>
</g>
<!-- Q6&#45;&gt;Q7 -->
<g id="edge9" class="edge">
<title>Q6&#45;&gt;Q7</title>
<path fill="none" stroke="black" d="M246.35,-48C256.06,-48 267.25,-48 277.77,-48"/>
<polygon fill="black" stroke="black" points="277.72,-51.5 287.72,-48 277.72,-44.5 277.72,-51.5"/>
<text text-anchor="middle" x="267.75" y="-50.45" font-family="Times New Roman,serif" font-size="14.00">ε</text>
</g>
<!-- Q9 -->
<g id="node10" class="node">
<title>Q9</title>
<ellipse fill="none" stroke="black" cx="509.25" cy="-18" rx="27" ry="18"/>
<text text-anchor="middle" x="509.25" y="-12.57" font-family="Times New Roman,serif" font-size="14.00">Q9</text>
</g>
<!-- Q6&#45;&gt;Q9 -->
<g id="edge10" class="edge">
<title>Q6&#45;&gt;Q9</title>
<path fill="none" stroke="black" d="M241.32,-37.43C254.77,-31.34 272.73,-24.26 289.5,-21 352.34,-8.78 427.25,-11.35 471.11,-14.53"/>
<polygon fill="black" stroke="black" points="470.6,-18 480.84,-15.29 471.15,-11.02 470.6,-18"/>
<text text-anchor="middle" x="364.88" y="-14.45" font-family="Times New Roman,serif" font-size="14.00">ε</text>
</g>
<!-- Q8 -->
<g id="node9" class="node">
<title>Q8</title>
<ellipse fill="none" stroke="black" cx="413.25" cy="-48" rx="27" ry="18"/>
<text text-anchor="middle" x="413.25" y="-42.58" font-family="Times New Roman,serif" font-size="14.00">Q8</text>
</g>
<!-- Q7&#45;&gt;Q8 -->
<g id="edge8" class="edge">
<title>Q7&#45;&gt;Q8</title>
<path fill="none" stroke="black" d="M339.52,-57.58C348.37,-60.39 358.71,-62.38 368.25,-61 371.43,-60.54 374.7,-59.9 377.95,-59.16"/>
<polygon fill="black" stroke="black" points="378.55,-62.62 387.32,-56.67 376.75,-55.85 378.55,-62.62"/>
<text text-anchor="middle" x="364.88" y="-63.45" font-family="Times New Roman,serif" font-size="14.00">c</text>
</g>
<!-- Q8&#45;&gt;Q7 -->
<g id="edge12" class="edge">
<title>Q8&#45;&gt;Q7</title>
<path fill="none" stroke="black" d="M386.73,-43.41C380.69,-42.51 374.26,-41.71 368.25,-41.25 363.56,-40.89 358.65,-40.97 353.8,-41.32"/>
<polygon fill="black" stroke="black" points="353.8,-37.8 344.24,-42.38 354.57,-44.76 353.8,-37.8"/>
<text text-anchor="middle" x="364.88" y="-43.45" font-family="Times New Roman,serif" font-size="14.00">ε</text>
</g>
<!-- Q8&#45;&gt;Q9 -->
<g id="edge11" class="edge">
<title>Q8&#45;&gt;Q9</title>
<path fill="none" stroke="black" d="M437.97,-40.43C448.77,-36.98 461.76,-32.84 473.62,-29.05"/>
<polygon fill="black" stroke="black" points="474.63,-32.4 483.1,-26.03 472.5,-25.73 474.63,-32.4"/>
<text text-anchor="middle" x="461.25" y="-35.45" font-family="Times New Roman,serif" font-size="14.00">ε</text>
</g>
<!-- Q10 -->
<g id="node11" class="node">
<title>Q10</title>
<ellipse fill="none" stroke="black" cx="605.25" cy="-18" rx="27" ry="18"/>
<text text-anchor="middle" x="605.25" y="-12.57" font-family="Times New Roman,serif" font-size="14.00">Q10</text>
</g>
<!-- Q9&#45;&gt;Q10 -->
<g id="edge7" class="edge">
<title>Q9&#45;&gt;Q10</title>
<path fill="none" stroke="black" d="M536.68,-18C545.97,-18 556.6,-18 566.63,-18"/>
<polygon fill="black" stroke="black" points="566.5,-21.5 576.5,-18 566.5,-14.5 566.5,-21.5"/>
<text text-anchor="middle" x="557.25" y="-20.45" font-family="Times New Roman,serif" font-size="14.00">ε</text>
</g>
<!-- Q11 -->
<g id="node12" class="node">
<title>Q11</title>
<ellipse fill="none" stroke="black" cx="702" cy="-18" rx="27" ry="18"/>
<text text-anchor="middle" x="702" y="-12.57" font-family="Times New Roman,serif" font-size="14.00">Q11</text>
</g>
<!-- Q10&#45;&gt;Q11 -->
<g id="edge13" class="edge">
<title>Q10&#45;&gt;Q11</title>
<path fill="none" stroke="black" d="M632.64,-18C642.19,-18 653.16,-18 663.48,-18"/>
<polygon fill="black" stroke="black" points="663.23,-21.5 673.23,-18 663.23,-14.5 663.23,-21.5"/>
<text text-anchor="middle" x="653.62" y="-20.45" font-family="Times New Roman,serif" font-size="14.00">c</text>
</g>
</g>
</svg>
