<?xml version="1.0" encoding="UTF-8" standalone="no"?>
<!DOCTYPE svg PUBLIC "-//W3C//DTD SVG 1.1//EN"
 "http://www.w3.org/Graphics/SVG/1.1/DTD/svg11.dtd">
<!-- Generated by graphviz version 10.0.1 (20240210.2158)
 -->
<!-- Pages: 1 -->
<svg width="838pt" height="215pt"
 viewBox="0.00 0.00 837.73 214.74" xmlns="http://www.w3.org/2000/svg" xmlns:xlink="http://www.w3.org/1999/xlink">
<g id="graph0" class="graph" transform="scale(1 1) rotate(0) translate(4 210.74)">
<polygon fill="#e5e7eb" stroke="none" points="-4,4 -4,-210.74 833.73,-210.74 833.73,4 -4,4"/>
<!-- Q0 -->
<g id="node1" class="node">
<title>Q0</title>
<ellipse fill="none" stroke="black" cx="120.5" cy="-144.61" rx="27" ry="18"/>
<text text-anchor="middle" x="120.5" y="-139.19" font-family="Times New Roman,serif" font-size="14.00">Q0</text>
</g>
<!-- Q1 -->
<g id="node2" class="node">
<title>Q1</title>
<ellipse fill="none" stroke="black" cx="216.5" cy="-176.61" rx="27" ry="18"/>
<text text-anchor="middle" x="216.5" y="-171.19" font-family="Times New Roman,serif" font-size="14.00">Q1</text>
</g>
<!-- Q0&#45;&gt;Q1 -->
<g id="edge2" class="edge">
<title>Q0&#45;&gt;Q1</title>
<path fill="none" stroke="black" d="M145.22,-152.69C156.13,-156.4 169.28,-160.88 181.24,-164.95"/>
<polygon fill="black" stroke="black" points="179.76,-168.14 190.35,-168.05 182.02,-161.52 179.76,-168.14"/>
<text text-anchor="middle" x="168.5" y="-164.06" font-family="Times New Roman,serif" font-size="14.00">ε</text>
</g>
<!-- Q3 -->
<g id="node4" class="node">
<title>Q3</title>
<ellipse fill="none" stroke="black" cx="216.5" cy="-118.61" rx="27" ry="18"/>
<text text-anchor="middle" x="216.5" y="-113.19" font-family="Times New Roman,serif" font-size="14.00">Q3</text>
</g>
<!-- Q0&#45;&gt;Q3 -->
<g id="edge3" class="edge">
<title>Q0&#45;&gt;Q3</title>
<path fill="none" stroke="black" d="M145.71,-137.92C156.15,-135.03 168.58,-131.59 180.03,-128.42"/>
<polygon fill="black" stroke="black" points="180.88,-131.82 189.59,-125.78 179.02,-125.07 180.88,-131.82"/>
<text text-anchor="middle" x="168.5" y="-135.06" font-family="Times New Roman,serif" font-size="14.00">ε</text>
</g>
<!-- Q2 -->
<g id="node3" class="node">
<title>Q2</title>
<ellipse fill="none" stroke="black" cx="312.5" cy="-180.61" rx="22.12" ry="22.12"/>
<ellipse fill="none" stroke="black" cx="312.5" cy="-180.61" rx="26.12" ry="26.12"/>
<text text-anchor="middle" x="312.5" y="-175.19" font-family="Times New Roman,serif" font-size="14.00">Q2</text>
</g>
<!-- Q1&#45;&gt;Q2 -->
<g id="edge4" class="edge">
<title>Q1&#45;&gt;Q2</title>
<path fill="none" stroke="black" d="M243.93,-177.74C253.48,-178.14 264.44,-178.61 274.71,-179.05"/>
<polygon fill="black" stroke="black" points="274.26,-182.53 284.4,-179.46 274.56,-175.54 274.26,-182.53"/>
<text text-anchor="middle" x="264.5" y="-182.06" font-family="Times New Roman,serif" font-size="14.00">a</text>
</g>
<!-- Q4 -->
<g id="node5" class="node">
<title>Q4</title>
<ellipse fill="none" stroke="black" cx="312.5" cy="-118.61" rx="27" ry="18"/>
<text text-anchor="middle" x="312.5" y="-113.19" font-family="Times New Roman,serif" font-size="14.00">Q4</text>
</g>
<!-- Q3&#45;&gt;Q4 -->
<g id="edge5" class="edge">
<title>Q3&#45;&gt;Q4</title>
<path fill="none" stroke="black" d="M243.93,-118.61C253.22,-118.61 263.85,-118.61 273.88,-118.61"/>
<polygon fill="black" stroke="black" points="273.75,-122.11 283.75,-118.61 273.75,-115.11 273.75,-122.11"/>
<text text-anchor="middle" x="264.5" y="-121.06" font-family="Times New Roman,serif" font-size="14.00">ε</text>
</g>
<!-- Q6 -->
<g id="node7" class="node">
<title>Q6</title>
<ellipse fill="none" stroke="black" cx="312.5" cy="-60.61" rx="27" ry="18"/>
<text text-anchor="middle" x="312.5" y="-55.19" font-family="Times New Roman,serif" font-size="14.00">Q6</text>
</g>
<!-- Q3&#45;&gt;Q6 -->
<g id="edge6" class="edge">
<title>Q3&#45;&gt;Q6</title>
<path fill="none" stroke="black" d="M236.98,-106.6C250.08,-98.51 267.6,-87.7 282.36,-78.59"/>
<polygon fill="black" stroke="black" points="284.09,-81.64 290.76,-73.41 280.41,-75.68 284.09,-81.64"/>
<text text-anchor="middle" x="264.5" y="-94.06" font-family="Times New Roman,serif" font-size="14.00">ε</text>
</g>
<!-- Q5 -->
<g id="node6" class="node">
<title>Q5</title>
<ellipse fill="none" stroke="black" cx="410" cy="-122.61" rx="22.12" ry="22.12"/>
<ellipse fill="none" stroke="black" cx="410" cy="-122.61" rx="26.12" ry="26.12"/>
<text text-anchor="middle" x="410" y="-117.19" font-family="Times New Roman,serif" font-size="14.00">Q5</text>
</g>
<!-- Q4&#45;&gt;Q5 -->
<g id="edge7" class="edge">
<title>Q4&#45;&gt;Q5</title>
<path fill="none" stroke="black" d="M339.85,-119.72C349.9,-120.14 361.56,-120.63 372.4,-121.08"/>
<polygon fill="black" stroke="black" points="372.08,-124.57 382.21,-121.49 372.37,-117.58 372.08,-124.57"/>
<text text-anchor="middle" x="361.25" y="-124.06" font-family="Times New Roman,serif" font-size="14.00">b</text>
</g>
<!-- Q7 -->
<g id="node8" class="node">
<title>Q7</title>
<ellipse fill="none" stroke="black" cx="410" cy="-60.61" rx="27" ry="18"/>
<text text-anchor="middle" x="410" y="-55.19" font-family="Times New Roman,serif" font-size="14.00">Q7</text>
</g>
<!-- Q6&#45;&gt;Q7 -->
<g id="edge10" class="edge">
<title>Q6&#45;&gt;Q7</title>
<path fill="none" stroke="black" d="M339.85,-60.61C349.56,-60.61 360.75,-60.61 371.27,-60.61"/>
<polygon fill="black" stroke="black" points="371.22,-64.11 381.22,-60.61 371.22,-57.11 371.22,-64.11"/>
<text text-anchor="middle" x="361.25" y="-63.06" font-family="Times New Roman,serif" font-size="14.00">ε</text>
</g>
<!-- Q9 -->
<g id="node10" class="node">
<title>Q9</title>
<ellipse fill="none" stroke="black" cx="602.75" cy="-30.61" rx="27" ry="18"/>
<text text-anchor="middle" x="602.75" y="-25.19" font-family="Times New Roman,serif" font-size="14.00">Q9</text>
</g>
<!-- Q6&#45;&gt;Q9 -->
<g id="edge11" class="edge">
<title>Q6&#45;&gt;Q9</title>
<path fill="none" stroke="black" d="M334.82,-50.04C348.27,-43.95 366.23,-36.88 383,-33.61 445.84,-21.39 520.75,-23.96 564.61,-27.14"/>
<polygon fill="black" stroke="black" points="564.1,-30.62 574.34,-27.91 564.65,-23.64 564.1,-30.62"/>
<text text-anchor="middle" x="458.38" y="-28.06" font-family="Times New Roman,serif" font-size="14.00">ε</text>
</g>
<!-- Q8 -->
<g id="node9" class="node">
<title>Q8</title>
<ellipse fill="none" stroke="black" cx="506.75" cy="-60.61" rx="27" ry="18"/>
<text text-anchor="middle" x="506.75" y="-55.19" font-family="Times New Roman,serif" font-size="14.00">Q8</text>
</g>
<!-- Q7&#45;&gt;Q8 -->
<g id="edge9" class="edge">
<title>Q7&#45;&gt;Q8</title>
<path fill="none" stroke="black" d="M434.47,-68.9C441.03,-70.84 448.22,-72.63 455,-73.61 460.81,-74.45 466.93,-74.04 472.81,-72.96"/>
<polygon fill="black" stroke="black" points="473.42,-76.41 482.26,-70.57 471.7,-69.63 473.42,-76.41"/>
<text text-anchor="middle" x="458.38" y="-77.06" font-family="Times New Roman,serif" font-size="14.00">c</text>
</g>
<!-- Q8&#45;&gt;Q7 -->
<g id="edge13" class="edge">
<title>Q8&#45;&gt;Q7</title>
<path fill="none" stroke="black" d="M480.51,-55.16C472.39,-53.97 463.33,-53.23 455,-53.86 452.65,-54.04 450.24,-54.27 447.81,-54.54"/>
<polygon fill="black" stroke="black" points="447.48,-51.06 438.02,-55.83 448.39,-58 447.48,-51.06"/>
<text text-anchor="middle" x="458.38" y="-57.06" font-family="Times New Roman,serif" font-size="14.00">ε</text>
</g>
<!-- Q8&#45;&gt;Q9 -->
<g id="edge12" class="edge">
<title>Q8&#45;&gt;Q9</title>
<path fill="none" stroke="black" d="M531.47,-53.04C542.27,-49.6 555.26,-45.45 567.12,-41.66"/>
<polygon fill="black" stroke="black" points="568.13,-45.02 576.6,-38.64 566,-38.35 568.13,-45.02"/>
<text text-anchor="middle" x="554.75" y="-49.06" font-family="Times New Roman,serif" font-size="14.00">ε</text>
</g>
<!-- Q10 -->
<g id="node11" class="node">
<title>Q10</title>
<ellipse fill="none" stroke="black" cx="698.75" cy="-30.61" rx="27" ry="18"/>
<text text-anchor="middle" x="698.75" y="-25.19" font-family="Times New Roman,serif" font-size="14.00">Q10</text>
</g>
<!-- Q9&#45;&gt;Q10 -->
<g id="edge8" class="edge">
<title>Q9&#45;&gt;Q10</title>
<path fill="none" stroke="black" d="M630.18,-30.61C639.47,-30.61 650.1,-30.61 660.13,-30.61"/>
<polygon fill="black" stroke="black" points="660,-34.11 670,-30.61 660,-27.11 660,-34.11"/>
<text text-anchor="middle" x="650.75" y="-33.06" font-family="Times New Roman,serif" font-size="14.00">ε</text>
</g>
<!-- Q11 -->
<g id="node12" class="node">
<title>Q11</title>
<ellipse fill="none" stroke="black" cx="799.11" cy="-30.61" rx="26.61" ry="26.61"/>
<ellipse fill="none" stroke="black" cx="799.11" cy="-30.61" rx="30.61" ry="30.61"/>
<text text-anchor="middle" x="799.11" y="-25.19" font-family="Times New Roman,serif" font-size="14.00">Q11</text>
</g>
<!-- Q10&#45;&gt;Q11 -->
<g id="edge14" class="edge">
<title>Q10&#45;&gt;Q11</title>
<path fill="none" stroke="black" d="M726.11,-30.61C735.54,-30.61 746.4,-30.61 756.79,-30.61"/>
<polygon fill="black" stroke="black" points="756.69,-34.11 766.69,-30.61 756.69,-27.11 756.69,-34.11"/>
<text text-anchor="middle" x="747.12" y="-33.06" font-family="Times New Roman,serif" font-size="14.00">c</text>
</g>
<!-- start -->
<g id="node13" class="node">
<title>start</title>
<text text-anchor="middle" x="28.25" y="-135.31" font-family="Times New Roman,serif" font-size="24.00">start</text>
</g>
<!-- start&#45;&gt;Q0 -->
<g id="edge1" class="edge">
<title>start&#45;&gt;Q0</title>
<path fill="none" stroke="black" d="M56.33,-144.61C64.32,-144.61 73.22,-144.61 81.76,-144.61"/>
<polygon fill="black" stroke="black" points="81.55,-148.11 91.55,-144.61 81.55,-141.11 81.55,-148.11"/>
</g>
</g>
</svg>
