<?xml version="1.0" encoding="UTF-8" standalone="no"?>
<!DOCTYPE svg PUBLIC "-//W3C//DTD SVG 1.1//EN"
 "http://www.w3.org/Graphics/SVG/1.1/DTD/svg11.dtd">
<!-- Generated by graphviz version 10.0.1 (20240210.2158)
 -->
<!-- Pages: 1 -->
<svg width="347pt" height="130pt"
 viewBox="0.00 0.00 347.24 130.24" xmlns="http://www.w3.org/2000/svg" xmlns:xlink="http://www.w3.org/1999/xlink">
<g id="graph0" class="graph" transform="scale(1 1) rotate(0) translate(4 126.24)">
<polygon fill="#e5e7eb" stroke="none" points="-4,4 -4,-126.24 343.24,-126.24 343.24,4 -4,4"/>
<!-- Q0 -->
<g id="node1" class="node">
<title>Q0</title>
<ellipse fill="none" stroke="black" cx="120.5" cy="-56.12" rx="27" ry="18"/>
<text text-anchor="middle" x="120.5" y="-50.7" font-family="Times New Roman,serif" font-size="14.00">Q0</text>
</g>
<!-- Q1 -->
<g id="node2" class="node">
<title>Q1</title>
<ellipse fill="none" stroke="black" cx="216.5" cy="-92.12" rx="27" ry="18"/>
<text text-anchor="middle" x="216.5" y="-86.7" font-family="Times New Roman,serif" font-size="14.00">Q1</text>
</g>
<!-- Q0&#45;&gt;Q1 -->
<g id="edge2" class="edge">
<title>Q0&#45;&gt;Q1</title>
<path fill="none" stroke="black" d="M144.25,-64.84C155.6,-69.18 169.54,-74.52 182.08,-79.32"/>
<polygon fill="black" stroke="black" points="180.63,-82.51 191.22,-82.82 183.13,-75.98 180.63,-82.51"/>
<text text-anchor="middle" x="168.5" y="-78.57" font-family="Times New Roman,serif" font-size="14.00">ε</text>
</g>
<!-- Q3 -->
<g id="node4" class="node">
<title>Q3</title>
<ellipse fill="none" stroke="black" cx="216.5" cy="-30.12" rx="27" ry="18"/>
<text text-anchor="middle" x="216.5" y="-24.7" font-family="Times New Roman,serif" font-size="14.00">Q3</text>
</g>
<!-- Q0&#45;&gt;Q3 -->
<g id="edge3" class="edge">
<title>Q0&#45;&gt;Q3</title>
<path fill="none" stroke="black" d="M145.71,-49.43C156.15,-46.54 168.58,-43.1 180.03,-39.93"/>
<polygon fill="black" stroke="black" points="180.88,-43.33 189.59,-37.29 179.02,-36.58 180.88,-43.33"/>
<text text-anchor="middle" x="168.5" y="-46.57" font-family="Times New Roman,serif" font-size="14.00">ε</text>
</g>
<!-- Q2 -->
<g id="node3" class="node">
<title>Q2</title>
<ellipse fill="none" stroke="black" cx="313.12" cy="-96.12" rx="22.12" ry="22.12"/>
<ellipse fill="none" stroke="black" cx="313.12" cy="-96.12" rx="26.12" ry="26.12"/>
<text text-anchor="middle" x="313.12" y="-90.7" font-family="Times New Roman,serif" font-size="14.00">Q2</text>
</g>
<!-- Q1&#45;&gt;Q2 -->
<g id="edge4" class="edge">
<title>Q1&#45;&gt;Q2</title>
<path fill="none" stroke="black" d="M243.86,-93.24C253.55,-93.65 264.72,-94.12 275.17,-94.56"/>
<polygon fill="black" stroke="black" points="274.91,-98.05 285.05,-94.98 275.2,-91.06 274.91,-98.05"/>
<text text-anchor="middle" x="265.25" y="-96.57" font-family="Times New Roman,serif" font-size="14.00">a</text>
</g>
<!-- Q4 -->
<g id="node5" class="node">
<title>Q4</title>
<ellipse fill="none" stroke="black" cx="313.12" cy="-26.12" rx="22.12" ry="22.12"/>
<ellipse fill="none" stroke="black" cx="313.12" cy="-26.12" rx="26.12" ry="26.12"/>
<text text-anchor="middle" x="313.12" y="-20.7" font-family="Times New Roman,serif" font-size="14.00">Q4</text>
</g>
<!-- Q3&#45;&gt;Q4 -->
<g id="edge5" class="edge">
<title>Q3&#45;&gt;Q4</title>
<path fill="none" stroke="black" d="M243.86,-29.01C253.55,-28.6 264.72,-28.13 275.17,-27.68"/>
<polygon fill="black" stroke="black" points="275.2,-31.19 285.05,-27.27 274.91,-24.19 275.2,-31.19"/>
<text text-anchor="middle" x="265.25" y="-31.57" font-family="Times New Roman,serif" font-size="14.00">b</text>
</g>
<!-- start -->
<g id="node6" class="node">
<title>start</title>
<text text-anchor="middle" x="28.25" y="-46.82" font-family="Times New Roman,serif" font-size="24.00">start</text>
</g>
<!-- start&#45;&gt;Q0 -->
<g id="edge1" class="edge">
<title>start&#45;&gt;Q0</title>
<path fill="none" stroke="black" d="M56.33,-56.12C64.32,-56.12 73.22,-56.12 81.76,-56.12"/>
<polygon fill="black" stroke="black" points="81.55,-59.62 91.55,-56.12 81.55,-52.62 81.55,-59.62"/>
</g>
</g>
</svg>
